%TF.GenerationSoftware,KiCad,Pcbnew,(5.1.10-1-10_14)*%
%TF.CreationDate,2021-08-15T15:03:56-03:00*%
%TF.ProjectId,bacee,62616365-652e-46b6-9963-61645f706362,1*%
%TF.SameCoordinates,Original*%
%TF.FileFunction,Copper,L2,Bot*%
%TF.FilePolarity,Positive*%
%FSLAX46Y46*%
G04 Gerber Fmt 4.6, Leading zero omitted, Abs format (unit mm)*
G04 Created by KiCad (PCBNEW (5.1.10-1-10_14)) date 2021-08-15 15:03:56*
%MOMM*%
%LPD*%
G01*
G04 APERTURE LIST*
%TA.AperFunction,ComponentPad*%
%ADD10R,1.700000X1.700000*%
%TD*%
%TA.AperFunction,ComponentPad*%
%ADD11O,1.700000X1.700000*%
%TD*%
%TA.AperFunction,ViaPad*%
%ADD12C,1.000000*%
%TD*%
%TA.AperFunction,Conductor*%
%ADD13C,0.300000*%
%TD*%
%TA.AperFunction,Conductor*%
%ADD14C,0.250000*%
%TD*%
%TA.AperFunction,Conductor*%
%ADD15C,0.254000*%
%TD*%
%TA.AperFunction,Conductor*%
%ADD16C,0.100000*%
%TD*%
G04 APERTURE END LIST*
D10*
%TO.P,BT1,1*%
%TO.N,/VCC*%
X83820000Y-104140000D03*
D11*
%TO.P,BT1,2*%
%TO.N,GNDPWR*%
X86360000Y-104140000D03*
%TD*%
D10*
%TO.P,J1,1*%
%TO.N,/MISO*%
X63500000Y-119507000D03*
D11*
%TO.P,J1,2*%
%TO.N,/VCC*%
X60960000Y-119507000D03*
%TO.P,J1,3*%
%TO.N,/SCK*%
X63500000Y-122047000D03*
%TO.P,J1,4*%
%TO.N,/MOSI*%
X60960000Y-122047000D03*
%TO.P,J1,5*%
%TO.N,/RESET*%
X63500000Y-124587000D03*
%TO.P,J1,6*%
%TO.N,GNDPWR*%
X60960000Y-124587000D03*
%TD*%
D10*
%TO.P,J2,1*%
%TO.N,/D2*%
X67310000Y-128270000D03*
D11*
%TO.P,J2,2*%
%TO.N,/D3*%
X69850000Y-128270000D03*
%TO.P,J2,3*%
%TO.N,/D4*%
X72390000Y-128270000D03*
%TO.P,J2,4*%
%TO.N,/D5*%
X74930000Y-128270000D03*
%TO.P,J2,5*%
%TO.N,/D6*%
X77470000Y-128270000D03*
%TO.P,J2,6*%
%TO.N,/D7*%
X80010000Y-128270000D03*
%TO.P,J2,7*%
%TO.N,/D8*%
X82550000Y-128270000D03*
%TO.P,J2,8*%
%TO.N,GNDPWR*%
X85090000Y-128270000D03*
%TO.P,J2,9*%
%TO.N,/VCC*%
X87630000Y-128270000D03*
%TD*%
D10*
%TO.P,J3,1*%
%TO.N,GNDPWR*%
X60960000Y-115570000D03*
D11*
%TO.P,J3,2*%
%TO.N,/VCC*%
X60960000Y-113030000D03*
%TO.P,J3,3*%
%TO.N,/RX*%
X60960000Y-110490000D03*
%TO.P,J3,4*%
%TO.N,/TX*%
X60960000Y-107950000D03*
%TD*%
%TO.P,J4,4*%
%TO.N,/SCK*%
X77470000Y-104140000D03*
%TO.P,J4,3*%
%TO.N,/SDA*%
X74930000Y-104140000D03*
%TO.P,J4,2*%
%TO.N,/VCC*%
X72390000Y-104140000D03*
D10*
%TO.P,J4,1*%
%TO.N,GNDPWR*%
X69850000Y-104140000D03*
%TD*%
D12*
%TO.N,/VCC*%
X85852000Y-119380000D03*
X71469000Y-106346991D03*
X70669000Y-114746992D03*
X70739000Y-109855000D03*
%TO.N,GNDPWR*%
X84455000Y-102362000D03*
X69069000Y-106346992D03*
X69053340Y-108849163D03*
X69053340Y-114138340D03*
X89027000Y-119761000D03*
X88900000Y-113157000D03*
%TO.N,Net-(C2-Pad1)*%
X80772000Y-123698000D03*
X76962000Y-120269000D03*
%TO.N,/SCK*%
X68580000Y-122047000D03*
X68834000Y-124714000D03*
X83312000Y-124968000D03*
X79375000Y-114681000D03*
%TO.N,/MISO*%
X72160884Y-109237758D03*
%TO.N,/MOSI*%
X67310000Y-114300000D03*
X70358000Y-118237000D03*
%TO.N,/RESET*%
X66929000Y-112776000D03*
%TO.N,/D2*%
X65405000Y-115697000D03*
%TO.N,/D3*%
X66675000Y-117348000D03*
%TO.N,/D4*%
X67927183Y-117406806D03*
%TO.N,/D5*%
X73533000Y-115570000D03*
%TO.N,/D6*%
X75119002Y-114554000D03*
%TO.N,/D7*%
X73787000Y-126111000D03*
X72136000Y-113284000D03*
%TO.N,/D8*%
X72898000Y-121158000D03*
X71755000Y-112141000D03*
%TO.N,/RX*%
X64002781Y-112907780D03*
%TO.N,/TX*%
X63844629Y-114097313D03*
%TO.N,/SDA*%
X76200000Y-112141000D03*
X90424000Y-117094000D03*
X90932000Y-111633000D03*
%TO.N,/SCL*%
X59690000Y-126873000D03*
X92202000Y-117094000D03*
X92710000Y-110109000D03*
%TD*%
D13*
%TO.N,/VCC*%
X85852000Y-119380000D02*
X85852000Y-124206000D01*
X87630000Y-125984000D02*
X87630000Y-128270000D01*
X85852000Y-124206000D02*
X87630000Y-125984000D01*
X82619999Y-102939999D02*
X83820000Y-104140000D01*
X73590001Y-102939999D02*
X82619999Y-102939999D01*
X72390000Y-104140000D02*
X73590001Y-102939999D01*
X71469000Y-105061000D02*
X72390000Y-104140000D01*
X71469000Y-106346991D02*
X71469000Y-105061000D01*
X70669000Y-109925000D02*
X70739000Y-109855000D01*
X70669000Y-114746992D02*
X70669000Y-109925000D01*
%TO.N,GNDPWR*%
X84582000Y-102362000D02*
X86360000Y-104140000D01*
X84455000Y-102362000D02*
X84582000Y-102362000D01*
X69850000Y-104140000D02*
X69850000Y-103759000D01*
X71247000Y-102362000D02*
X84455000Y-102362000D01*
X69850000Y-103759000D02*
X71247000Y-102362000D01*
X69069000Y-104921000D02*
X69850000Y-104140000D01*
X69069000Y-106346992D02*
X69069000Y-104921000D01*
X69053340Y-108849163D02*
X69053340Y-114138340D01*
X60960000Y-124587000D02*
X59055000Y-122682000D01*
X59055000Y-117475000D02*
X60960000Y-115570000D01*
X59055000Y-122682000D02*
X59055000Y-117475000D01*
X69850000Y-104140000D02*
X68326000Y-105664000D01*
X59810000Y-115570000D02*
X60960000Y-115570000D01*
X58833990Y-114593990D02*
X59810000Y-115570000D01*
X58833990Y-106266010D02*
X58833990Y-114593990D01*
X59436000Y-105664000D02*
X58833990Y-106266010D01*
X68326000Y-105664000D02*
X59436000Y-105664000D01*
X89027000Y-119761000D02*
X89027000Y-113411000D01*
X88900000Y-113284000D02*
X88900000Y-113157000D01*
X89027000Y-113411000D02*
X88900000Y-113284000D01*
D14*
%TO.N,Net-(C2-Pad1)*%
X80772000Y-123698000D02*
X77978000Y-123698000D01*
X77978000Y-123698000D02*
X77724000Y-123698000D01*
X77724000Y-123698000D02*
X76962000Y-122936000D01*
X76962000Y-122936000D02*
X76962000Y-120269000D01*
%TO.N,/SCK*%
X68580000Y-122047000D02*
X68580000Y-124587000D01*
X68707000Y-124714000D02*
X68834000Y-124714000D01*
X68580000Y-124587000D02*
X68707000Y-124714000D01*
X83312000Y-124968000D02*
X83312000Y-118872000D01*
X79375000Y-114935000D02*
X79375000Y-114681000D01*
X83312000Y-118872000D02*
X79375000Y-114935000D01*
%TO.N,/MISO*%
X59784999Y-107385999D02*
X60395999Y-106774999D01*
X70309125Y-107385999D02*
X72160884Y-109237758D01*
X60395999Y-106774999D02*
X61524001Y-106774999D01*
X62135001Y-107385999D02*
X70309125Y-107385999D01*
X60395999Y-111665001D02*
X59784999Y-111054001D01*
X59784999Y-111054001D02*
X59784999Y-107385999D01*
X61524001Y-111665001D02*
X60395999Y-111665001D01*
X62135001Y-112276001D02*
X61524001Y-111665001D01*
X62135001Y-118142001D02*
X62135001Y-112276001D01*
X61524001Y-106774999D02*
X62135001Y-107385999D01*
X63500000Y-119507000D02*
X62135001Y-118142001D01*
%TO.N,/MOSI*%
X70358000Y-117348000D02*
X70358000Y-118237000D01*
X67310000Y-114300000D02*
X70358000Y-117348000D01*
%TO.N,/RESET*%
X64389000Y-115316000D02*
X64389000Y-118110998D01*
X66548000Y-120269998D02*
X66548000Y-123444000D01*
X65405000Y-124587000D02*
X63500000Y-124587000D01*
X64389000Y-118110998D02*
X66548000Y-120269998D01*
X66548000Y-123444000D02*
X65405000Y-124587000D01*
X66929000Y-112776000D02*
X64389000Y-115316000D01*
%TO.N,/D2*%
X67310000Y-128270000D02*
X67310000Y-119507000D01*
X67310000Y-119507000D02*
X65405000Y-117602000D01*
X65405000Y-117602000D02*
X65405000Y-115697000D01*
%TO.N,/D3*%
X69850000Y-120523000D02*
X69850000Y-128270000D01*
X66675000Y-117348000D02*
X69850000Y-120523000D01*
%TO.N,/D4*%
X72390000Y-121869623D02*
X72390000Y-128270000D01*
X67927183Y-117406806D02*
X72390000Y-121869623D01*
%TO.N,/D5*%
X74930000Y-128270000D02*
X74930000Y-117094000D01*
X73533000Y-115697000D02*
X73533000Y-115570000D01*
X74930000Y-117094000D02*
X73533000Y-115697000D01*
%TO.N,/D6*%
X77470000Y-128270000D02*
X75819000Y-126619000D01*
X75819000Y-126619000D02*
X75819000Y-116459000D01*
X75119002Y-115759002D02*
X75119002Y-114554000D01*
X75819000Y-116459000D02*
X75119002Y-115759002D01*
%TO.N,/D7*%
X73787000Y-126111000D02*
X73787000Y-118745000D01*
X73787000Y-118745000D02*
X72136000Y-117094000D01*
X72136000Y-117094000D02*
X72136000Y-113284000D01*
%TO.N,/D8*%
X71310999Y-113680001D02*
X71310999Y-112331001D01*
X71685990Y-119945990D02*
X71685990Y-114054992D01*
X71685990Y-114054992D02*
X71310999Y-113680001D01*
X72898000Y-121158000D02*
X71685990Y-119945990D01*
X71501000Y-112141000D02*
X71755000Y-112141000D01*
X71310999Y-112331001D02*
X71501000Y-112141000D01*
%TO.N,/RX*%
X60960000Y-110490000D02*
X63754000Y-110490000D01*
X64002781Y-110738781D02*
X64002781Y-112907780D01*
X63754000Y-110490000D02*
X64002781Y-110738781D01*
%TO.N,/TX*%
X63641942Y-114300000D02*
X63844629Y-114097313D01*
X60960000Y-107950000D02*
X62103000Y-109093000D01*
X62103000Y-109855000D02*
X62287990Y-110039990D01*
X62103000Y-109093000D02*
X62103000Y-109855000D01*
X64700990Y-110039990D02*
X65024000Y-110363000D01*
X62287990Y-110039990D02*
X64700990Y-110039990D01*
X65024000Y-113625048D02*
X64551735Y-114097313D01*
X64551735Y-114097313D02*
X63844629Y-114097313D01*
X65024000Y-110363000D02*
X65024000Y-113625048D01*
%TO.N,/SDA*%
X76200000Y-112141000D02*
X75692000Y-111633000D01*
X75692000Y-104902000D02*
X74930000Y-104140000D01*
X75692000Y-111633000D02*
X75692000Y-104902000D01*
X90424000Y-117094000D02*
X90424000Y-112522000D01*
X90932000Y-112014000D02*
X90932000Y-111633000D01*
X90424000Y-112522000D02*
X90932000Y-112014000D01*
X90424000Y-112141000D02*
X90932000Y-111633000D01*
X76200000Y-112141000D02*
X90424000Y-112141000D01*
%TO.N,/SCL*%
X59690000Y-126873000D02*
X64643000Y-126873000D01*
X64643000Y-127888002D02*
X66929998Y-130175000D01*
X64643000Y-126873000D02*
X64643000Y-127888002D01*
X66929998Y-130175000D02*
X73787000Y-130175000D01*
X73787000Y-130175000D02*
X89916000Y-130175000D01*
X89916000Y-130175000D02*
X95631000Y-124460000D01*
X95631000Y-124460000D02*
X95631000Y-122428000D01*
X95631000Y-122428000D02*
X91567000Y-118364000D01*
X91567000Y-118364000D02*
X91567000Y-117729000D01*
X91567000Y-117729000D02*
X92202000Y-117094000D01*
X92202000Y-110617000D02*
X92710000Y-110109000D01*
X92202000Y-117094000D02*
X92202000Y-110617000D01*
%TD*%
D15*
%TO.N,GNDPWR*%
X73776525Y-105086632D02*
X73983368Y-105293475D01*
X74226589Y-105455990D01*
X74496842Y-105567932D01*
X74783740Y-105625000D01*
X74932001Y-105625000D01*
X74932000Y-111595677D01*
X74928324Y-111633000D01*
X74932000Y-111670322D01*
X74932000Y-111670332D01*
X74942997Y-111781985D01*
X74979389Y-111901956D01*
X74986454Y-111925246D01*
X75057026Y-112057276D01*
X75065000Y-112066992D01*
X75065000Y-112252788D01*
X75108617Y-112472067D01*
X75194176Y-112678624D01*
X75318388Y-112864520D01*
X75476480Y-113022612D01*
X75662376Y-113146824D01*
X75868933Y-113232383D01*
X76088212Y-113276000D01*
X76311788Y-113276000D01*
X76531067Y-113232383D01*
X76737624Y-113146824D01*
X76923520Y-113022612D01*
X77045132Y-112901000D01*
X89664001Y-112901000D01*
X89664000Y-116248868D01*
X89542388Y-116370480D01*
X89418176Y-116556376D01*
X89332617Y-116762933D01*
X89289000Y-116982212D01*
X89289000Y-117205788D01*
X89332617Y-117425067D01*
X89418176Y-117631624D01*
X89542388Y-117817520D01*
X89700480Y-117975612D01*
X89886376Y-118099824D01*
X90092933Y-118185383D01*
X90312212Y-118229000D01*
X90535788Y-118229000D01*
X90755067Y-118185383D01*
X90807000Y-118163872D01*
X90807000Y-118326678D01*
X90803324Y-118364000D01*
X90807000Y-118401322D01*
X90807000Y-118401332D01*
X90817997Y-118512985D01*
X90851066Y-118622000D01*
X90861454Y-118656246D01*
X90932026Y-118788276D01*
X90959897Y-118822236D01*
X91026999Y-118904001D01*
X91056003Y-118927804D01*
X94871001Y-122742803D01*
X94871000Y-124145198D01*
X89601199Y-129415000D01*
X88585107Y-129415000D01*
X88783475Y-129216632D01*
X88945990Y-128973411D01*
X89057932Y-128703158D01*
X89115000Y-128416260D01*
X89115000Y-128123740D01*
X89057932Y-127836842D01*
X88945990Y-127566589D01*
X88783475Y-127323368D01*
X88576632Y-127116525D01*
X88415000Y-127008526D01*
X88415000Y-126022556D01*
X88418797Y-125984000D01*
X88415000Y-125945440D01*
X88415000Y-125945439D01*
X88410819Y-125902990D01*
X88403642Y-125830113D01*
X88358754Y-125682140D01*
X88312504Y-125595612D01*
X88285862Y-125545767D01*
X88187764Y-125426236D01*
X88157811Y-125401654D01*
X86637000Y-123880843D01*
X86637000Y-120200132D01*
X86733612Y-120103520D01*
X86857824Y-119917624D01*
X86943383Y-119711067D01*
X86987000Y-119491788D01*
X86987000Y-119268212D01*
X86943383Y-119048933D01*
X86857824Y-118842376D01*
X86733612Y-118656480D01*
X86575520Y-118498388D01*
X86389624Y-118374176D01*
X86183067Y-118288617D01*
X85963788Y-118245000D01*
X85740212Y-118245000D01*
X85520933Y-118288617D01*
X85314376Y-118374176D01*
X85128480Y-118498388D01*
X84970388Y-118656480D01*
X84846176Y-118842376D01*
X84760617Y-119048933D01*
X84717000Y-119268212D01*
X84717000Y-119491788D01*
X84760617Y-119711067D01*
X84846176Y-119917624D01*
X84970388Y-120103520D01*
X85067000Y-120200132D01*
X85067001Y-124167437D01*
X85063203Y-124206000D01*
X85078359Y-124359886D01*
X85123246Y-124507859D01*
X85123247Y-124507860D01*
X85196139Y-124644233D01*
X85236690Y-124693644D01*
X85269655Y-124733812D01*
X85269659Y-124733816D01*
X85294237Y-124763764D01*
X85324185Y-124788342D01*
X86845000Y-126309157D01*
X86845000Y-127008526D01*
X86683368Y-127116525D01*
X86476525Y-127323368D01*
X86354805Y-127505534D01*
X86285178Y-127388645D01*
X86090269Y-127172412D01*
X85856920Y-126998359D01*
X85594099Y-126873175D01*
X85446890Y-126828524D01*
X85217000Y-126949845D01*
X85217000Y-128143000D01*
X85237000Y-128143000D01*
X85237000Y-128397000D01*
X85217000Y-128397000D01*
X85217000Y-128417000D01*
X84963000Y-128417000D01*
X84963000Y-128397000D01*
X84943000Y-128397000D01*
X84943000Y-128143000D01*
X84963000Y-128143000D01*
X84963000Y-126949845D01*
X84733110Y-126828524D01*
X84585901Y-126873175D01*
X84323080Y-126998359D01*
X84089731Y-127172412D01*
X83894822Y-127388645D01*
X83825195Y-127505534D01*
X83703475Y-127323368D01*
X83496632Y-127116525D01*
X83253411Y-126954010D01*
X82983158Y-126842068D01*
X82696260Y-126785000D01*
X82403740Y-126785000D01*
X82116842Y-126842068D01*
X81846589Y-126954010D01*
X81603368Y-127116525D01*
X81396525Y-127323368D01*
X81280000Y-127497760D01*
X81163475Y-127323368D01*
X80956632Y-127116525D01*
X80713411Y-126954010D01*
X80443158Y-126842068D01*
X80156260Y-126785000D01*
X79863740Y-126785000D01*
X79576842Y-126842068D01*
X79306589Y-126954010D01*
X79063368Y-127116525D01*
X78856525Y-127323368D01*
X78740000Y-127497760D01*
X78623475Y-127323368D01*
X78416632Y-127116525D01*
X78173411Y-126954010D01*
X77903158Y-126842068D01*
X77616260Y-126785000D01*
X77323740Y-126785000D01*
X77103592Y-126828791D01*
X76579000Y-126304199D01*
X76579000Y-123627801D01*
X77160201Y-124209002D01*
X77183999Y-124238001D01*
X77299724Y-124332974D01*
X77431753Y-124403546D01*
X77575014Y-124447003D01*
X77686667Y-124458000D01*
X77686675Y-124458000D01*
X77724000Y-124461676D01*
X77761325Y-124458000D01*
X79926868Y-124458000D01*
X80048480Y-124579612D01*
X80234376Y-124703824D01*
X80440933Y-124789383D01*
X80660212Y-124833000D01*
X80883788Y-124833000D01*
X81103067Y-124789383D01*
X81309624Y-124703824D01*
X81495520Y-124579612D01*
X81653612Y-124421520D01*
X81777824Y-124235624D01*
X81863383Y-124029067D01*
X81907000Y-123809788D01*
X81907000Y-123586212D01*
X81863383Y-123366933D01*
X81777824Y-123160376D01*
X81653612Y-122974480D01*
X81495520Y-122816388D01*
X81309624Y-122692176D01*
X81103067Y-122606617D01*
X80883788Y-122563000D01*
X80660212Y-122563000D01*
X80440933Y-122606617D01*
X80234376Y-122692176D01*
X80048480Y-122816388D01*
X79926868Y-122938000D01*
X78038802Y-122938000D01*
X77722000Y-122621199D01*
X77722000Y-121114132D01*
X77843612Y-120992520D01*
X77967824Y-120806624D01*
X78053383Y-120600067D01*
X78097000Y-120380788D01*
X78097000Y-120157212D01*
X78053383Y-119937933D01*
X77967824Y-119731376D01*
X77843612Y-119545480D01*
X77685520Y-119387388D01*
X77499624Y-119263176D01*
X77293067Y-119177617D01*
X77073788Y-119134000D01*
X76850212Y-119134000D01*
X76630933Y-119177617D01*
X76579000Y-119199128D01*
X76579000Y-116496325D01*
X76582676Y-116459000D01*
X76579000Y-116421675D01*
X76579000Y-116421667D01*
X76568003Y-116310014D01*
X76524546Y-116166753D01*
X76453974Y-116034724D01*
X76359001Y-115918999D01*
X76330002Y-115895201D01*
X75879002Y-115444201D01*
X75879002Y-115399132D01*
X76000614Y-115277520D01*
X76124826Y-115091624D01*
X76210385Y-114885067D01*
X76254002Y-114665788D01*
X76254002Y-114569212D01*
X78240000Y-114569212D01*
X78240000Y-114792788D01*
X78283617Y-115012067D01*
X78369176Y-115218624D01*
X78493388Y-115404520D01*
X78651480Y-115562612D01*
X78837376Y-115686824D01*
X79043933Y-115772383D01*
X79160835Y-115795636D01*
X82552001Y-119186803D01*
X82552000Y-124122868D01*
X82430388Y-124244480D01*
X82306176Y-124430376D01*
X82220617Y-124636933D01*
X82177000Y-124856212D01*
X82177000Y-125079788D01*
X82220617Y-125299067D01*
X82306176Y-125505624D01*
X82430388Y-125691520D01*
X82588480Y-125849612D01*
X82774376Y-125973824D01*
X82980933Y-126059383D01*
X83200212Y-126103000D01*
X83423788Y-126103000D01*
X83643067Y-126059383D01*
X83849624Y-125973824D01*
X84035520Y-125849612D01*
X84193612Y-125691520D01*
X84317824Y-125505624D01*
X84403383Y-125299067D01*
X84447000Y-125079788D01*
X84447000Y-124856212D01*
X84403383Y-124636933D01*
X84317824Y-124430376D01*
X84193612Y-124244480D01*
X84072000Y-124122868D01*
X84072000Y-118909325D01*
X84075676Y-118872000D01*
X84072000Y-118834675D01*
X84072000Y-118834667D01*
X84061003Y-118723014D01*
X84017546Y-118579753D01*
X83946974Y-118447724D01*
X83852001Y-118331999D01*
X83823003Y-118308201D01*
X80476418Y-114961617D01*
X80510000Y-114792788D01*
X80510000Y-114569212D01*
X80466383Y-114349933D01*
X80380824Y-114143376D01*
X80256612Y-113957480D01*
X80098520Y-113799388D01*
X79912624Y-113675176D01*
X79706067Y-113589617D01*
X79486788Y-113546000D01*
X79263212Y-113546000D01*
X79043933Y-113589617D01*
X78837376Y-113675176D01*
X78651480Y-113799388D01*
X78493388Y-113957480D01*
X78369176Y-114143376D01*
X78283617Y-114349933D01*
X78240000Y-114569212D01*
X76254002Y-114569212D01*
X76254002Y-114442212D01*
X76210385Y-114222933D01*
X76124826Y-114016376D01*
X76000614Y-113830480D01*
X75842522Y-113672388D01*
X75656626Y-113548176D01*
X75450069Y-113462617D01*
X75230790Y-113419000D01*
X75007214Y-113419000D01*
X74787935Y-113462617D01*
X74581378Y-113548176D01*
X74395482Y-113672388D01*
X74237390Y-113830480D01*
X74113178Y-114016376D01*
X74027619Y-114222933D01*
X73984002Y-114442212D01*
X73984002Y-114528296D01*
X73864067Y-114478617D01*
X73644788Y-114435000D01*
X73421212Y-114435000D01*
X73201933Y-114478617D01*
X72995376Y-114564176D01*
X72896000Y-114630577D01*
X72896000Y-114129132D01*
X73017612Y-114007520D01*
X73141824Y-113821624D01*
X73227383Y-113615067D01*
X73271000Y-113395788D01*
X73271000Y-113172212D01*
X73227383Y-112952933D01*
X73141824Y-112746376D01*
X73017612Y-112560480D01*
X72860123Y-112402991D01*
X72890000Y-112252788D01*
X72890000Y-112029212D01*
X72846383Y-111809933D01*
X72760824Y-111603376D01*
X72636612Y-111417480D01*
X72478520Y-111259388D01*
X72292624Y-111135176D01*
X72086067Y-111049617D01*
X71866788Y-111006000D01*
X71643212Y-111006000D01*
X71454000Y-111043636D01*
X71454000Y-110742305D01*
X71462520Y-110736612D01*
X71620612Y-110578520D01*
X71744824Y-110392624D01*
X71779716Y-110308388D01*
X71829817Y-110329141D01*
X72049096Y-110372758D01*
X72272672Y-110372758D01*
X72491951Y-110329141D01*
X72698508Y-110243582D01*
X72884404Y-110119370D01*
X73042496Y-109961278D01*
X73166708Y-109775382D01*
X73252267Y-109568825D01*
X73295884Y-109349546D01*
X73295884Y-109125970D01*
X73252267Y-108906691D01*
X73166708Y-108700134D01*
X73042496Y-108514238D01*
X72884404Y-108356146D01*
X72698508Y-108231934D01*
X72491951Y-108146375D01*
X72272672Y-108102758D01*
X72100686Y-108102758D01*
X71479918Y-107481991D01*
X71580788Y-107481991D01*
X71800067Y-107438374D01*
X72006624Y-107352815D01*
X72192520Y-107228603D01*
X72350612Y-107070511D01*
X72474824Y-106884615D01*
X72560383Y-106678058D01*
X72604000Y-106458779D01*
X72604000Y-106235203D01*
X72560383Y-106015924D01*
X72474824Y-105809367D01*
X72351634Y-105625000D01*
X72536260Y-105625000D01*
X72823158Y-105567932D01*
X73093411Y-105455990D01*
X73336632Y-105293475D01*
X73543475Y-105086632D01*
X73660000Y-104912240D01*
X73776525Y-105086632D01*
%TA.AperFunction,Conductor*%
D16*
G36*
X73776525Y-105086632D02*
G01*
X73983368Y-105293475D01*
X74226589Y-105455990D01*
X74496842Y-105567932D01*
X74783740Y-105625000D01*
X74932001Y-105625000D01*
X74932000Y-111595677D01*
X74928324Y-111633000D01*
X74932000Y-111670322D01*
X74932000Y-111670332D01*
X74942997Y-111781985D01*
X74979389Y-111901956D01*
X74986454Y-111925246D01*
X75057026Y-112057276D01*
X75065000Y-112066992D01*
X75065000Y-112252788D01*
X75108617Y-112472067D01*
X75194176Y-112678624D01*
X75318388Y-112864520D01*
X75476480Y-113022612D01*
X75662376Y-113146824D01*
X75868933Y-113232383D01*
X76088212Y-113276000D01*
X76311788Y-113276000D01*
X76531067Y-113232383D01*
X76737624Y-113146824D01*
X76923520Y-113022612D01*
X77045132Y-112901000D01*
X89664001Y-112901000D01*
X89664000Y-116248868D01*
X89542388Y-116370480D01*
X89418176Y-116556376D01*
X89332617Y-116762933D01*
X89289000Y-116982212D01*
X89289000Y-117205788D01*
X89332617Y-117425067D01*
X89418176Y-117631624D01*
X89542388Y-117817520D01*
X89700480Y-117975612D01*
X89886376Y-118099824D01*
X90092933Y-118185383D01*
X90312212Y-118229000D01*
X90535788Y-118229000D01*
X90755067Y-118185383D01*
X90807000Y-118163872D01*
X90807000Y-118326678D01*
X90803324Y-118364000D01*
X90807000Y-118401322D01*
X90807000Y-118401332D01*
X90817997Y-118512985D01*
X90851066Y-118622000D01*
X90861454Y-118656246D01*
X90932026Y-118788276D01*
X90959897Y-118822236D01*
X91026999Y-118904001D01*
X91056003Y-118927804D01*
X94871001Y-122742803D01*
X94871000Y-124145198D01*
X89601199Y-129415000D01*
X88585107Y-129415000D01*
X88783475Y-129216632D01*
X88945990Y-128973411D01*
X89057932Y-128703158D01*
X89115000Y-128416260D01*
X89115000Y-128123740D01*
X89057932Y-127836842D01*
X88945990Y-127566589D01*
X88783475Y-127323368D01*
X88576632Y-127116525D01*
X88415000Y-127008526D01*
X88415000Y-126022556D01*
X88418797Y-125984000D01*
X88415000Y-125945440D01*
X88415000Y-125945439D01*
X88410819Y-125902990D01*
X88403642Y-125830113D01*
X88358754Y-125682140D01*
X88312504Y-125595612D01*
X88285862Y-125545767D01*
X88187764Y-125426236D01*
X88157811Y-125401654D01*
X86637000Y-123880843D01*
X86637000Y-120200132D01*
X86733612Y-120103520D01*
X86857824Y-119917624D01*
X86943383Y-119711067D01*
X86987000Y-119491788D01*
X86987000Y-119268212D01*
X86943383Y-119048933D01*
X86857824Y-118842376D01*
X86733612Y-118656480D01*
X86575520Y-118498388D01*
X86389624Y-118374176D01*
X86183067Y-118288617D01*
X85963788Y-118245000D01*
X85740212Y-118245000D01*
X85520933Y-118288617D01*
X85314376Y-118374176D01*
X85128480Y-118498388D01*
X84970388Y-118656480D01*
X84846176Y-118842376D01*
X84760617Y-119048933D01*
X84717000Y-119268212D01*
X84717000Y-119491788D01*
X84760617Y-119711067D01*
X84846176Y-119917624D01*
X84970388Y-120103520D01*
X85067000Y-120200132D01*
X85067001Y-124167437D01*
X85063203Y-124206000D01*
X85078359Y-124359886D01*
X85123246Y-124507859D01*
X85123247Y-124507860D01*
X85196139Y-124644233D01*
X85236690Y-124693644D01*
X85269655Y-124733812D01*
X85269659Y-124733816D01*
X85294237Y-124763764D01*
X85324185Y-124788342D01*
X86845000Y-126309157D01*
X86845000Y-127008526D01*
X86683368Y-127116525D01*
X86476525Y-127323368D01*
X86354805Y-127505534D01*
X86285178Y-127388645D01*
X86090269Y-127172412D01*
X85856920Y-126998359D01*
X85594099Y-126873175D01*
X85446890Y-126828524D01*
X85217000Y-126949845D01*
X85217000Y-128143000D01*
X85237000Y-128143000D01*
X85237000Y-128397000D01*
X85217000Y-128397000D01*
X85217000Y-128417000D01*
X84963000Y-128417000D01*
X84963000Y-128397000D01*
X84943000Y-128397000D01*
X84943000Y-128143000D01*
X84963000Y-128143000D01*
X84963000Y-126949845D01*
X84733110Y-126828524D01*
X84585901Y-126873175D01*
X84323080Y-126998359D01*
X84089731Y-127172412D01*
X83894822Y-127388645D01*
X83825195Y-127505534D01*
X83703475Y-127323368D01*
X83496632Y-127116525D01*
X83253411Y-126954010D01*
X82983158Y-126842068D01*
X82696260Y-126785000D01*
X82403740Y-126785000D01*
X82116842Y-126842068D01*
X81846589Y-126954010D01*
X81603368Y-127116525D01*
X81396525Y-127323368D01*
X81280000Y-127497760D01*
X81163475Y-127323368D01*
X80956632Y-127116525D01*
X80713411Y-126954010D01*
X80443158Y-126842068D01*
X80156260Y-126785000D01*
X79863740Y-126785000D01*
X79576842Y-126842068D01*
X79306589Y-126954010D01*
X79063368Y-127116525D01*
X78856525Y-127323368D01*
X78740000Y-127497760D01*
X78623475Y-127323368D01*
X78416632Y-127116525D01*
X78173411Y-126954010D01*
X77903158Y-126842068D01*
X77616260Y-126785000D01*
X77323740Y-126785000D01*
X77103592Y-126828791D01*
X76579000Y-126304199D01*
X76579000Y-123627801D01*
X77160201Y-124209002D01*
X77183999Y-124238001D01*
X77299724Y-124332974D01*
X77431753Y-124403546D01*
X77575014Y-124447003D01*
X77686667Y-124458000D01*
X77686675Y-124458000D01*
X77724000Y-124461676D01*
X77761325Y-124458000D01*
X79926868Y-124458000D01*
X80048480Y-124579612D01*
X80234376Y-124703824D01*
X80440933Y-124789383D01*
X80660212Y-124833000D01*
X80883788Y-124833000D01*
X81103067Y-124789383D01*
X81309624Y-124703824D01*
X81495520Y-124579612D01*
X81653612Y-124421520D01*
X81777824Y-124235624D01*
X81863383Y-124029067D01*
X81907000Y-123809788D01*
X81907000Y-123586212D01*
X81863383Y-123366933D01*
X81777824Y-123160376D01*
X81653612Y-122974480D01*
X81495520Y-122816388D01*
X81309624Y-122692176D01*
X81103067Y-122606617D01*
X80883788Y-122563000D01*
X80660212Y-122563000D01*
X80440933Y-122606617D01*
X80234376Y-122692176D01*
X80048480Y-122816388D01*
X79926868Y-122938000D01*
X78038802Y-122938000D01*
X77722000Y-122621199D01*
X77722000Y-121114132D01*
X77843612Y-120992520D01*
X77967824Y-120806624D01*
X78053383Y-120600067D01*
X78097000Y-120380788D01*
X78097000Y-120157212D01*
X78053383Y-119937933D01*
X77967824Y-119731376D01*
X77843612Y-119545480D01*
X77685520Y-119387388D01*
X77499624Y-119263176D01*
X77293067Y-119177617D01*
X77073788Y-119134000D01*
X76850212Y-119134000D01*
X76630933Y-119177617D01*
X76579000Y-119199128D01*
X76579000Y-116496325D01*
X76582676Y-116459000D01*
X76579000Y-116421675D01*
X76579000Y-116421667D01*
X76568003Y-116310014D01*
X76524546Y-116166753D01*
X76453974Y-116034724D01*
X76359001Y-115918999D01*
X76330002Y-115895201D01*
X75879002Y-115444201D01*
X75879002Y-115399132D01*
X76000614Y-115277520D01*
X76124826Y-115091624D01*
X76210385Y-114885067D01*
X76254002Y-114665788D01*
X76254002Y-114569212D01*
X78240000Y-114569212D01*
X78240000Y-114792788D01*
X78283617Y-115012067D01*
X78369176Y-115218624D01*
X78493388Y-115404520D01*
X78651480Y-115562612D01*
X78837376Y-115686824D01*
X79043933Y-115772383D01*
X79160835Y-115795636D01*
X82552001Y-119186803D01*
X82552000Y-124122868D01*
X82430388Y-124244480D01*
X82306176Y-124430376D01*
X82220617Y-124636933D01*
X82177000Y-124856212D01*
X82177000Y-125079788D01*
X82220617Y-125299067D01*
X82306176Y-125505624D01*
X82430388Y-125691520D01*
X82588480Y-125849612D01*
X82774376Y-125973824D01*
X82980933Y-126059383D01*
X83200212Y-126103000D01*
X83423788Y-126103000D01*
X83643067Y-126059383D01*
X83849624Y-125973824D01*
X84035520Y-125849612D01*
X84193612Y-125691520D01*
X84317824Y-125505624D01*
X84403383Y-125299067D01*
X84447000Y-125079788D01*
X84447000Y-124856212D01*
X84403383Y-124636933D01*
X84317824Y-124430376D01*
X84193612Y-124244480D01*
X84072000Y-124122868D01*
X84072000Y-118909325D01*
X84075676Y-118872000D01*
X84072000Y-118834675D01*
X84072000Y-118834667D01*
X84061003Y-118723014D01*
X84017546Y-118579753D01*
X83946974Y-118447724D01*
X83852001Y-118331999D01*
X83823003Y-118308201D01*
X80476418Y-114961617D01*
X80510000Y-114792788D01*
X80510000Y-114569212D01*
X80466383Y-114349933D01*
X80380824Y-114143376D01*
X80256612Y-113957480D01*
X80098520Y-113799388D01*
X79912624Y-113675176D01*
X79706067Y-113589617D01*
X79486788Y-113546000D01*
X79263212Y-113546000D01*
X79043933Y-113589617D01*
X78837376Y-113675176D01*
X78651480Y-113799388D01*
X78493388Y-113957480D01*
X78369176Y-114143376D01*
X78283617Y-114349933D01*
X78240000Y-114569212D01*
X76254002Y-114569212D01*
X76254002Y-114442212D01*
X76210385Y-114222933D01*
X76124826Y-114016376D01*
X76000614Y-113830480D01*
X75842522Y-113672388D01*
X75656626Y-113548176D01*
X75450069Y-113462617D01*
X75230790Y-113419000D01*
X75007214Y-113419000D01*
X74787935Y-113462617D01*
X74581378Y-113548176D01*
X74395482Y-113672388D01*
X74237390Y-113830480D01*
X74113178Y-114016376D01*
X74027619Y-114222933D01*
X73984002Y-114442212D01*
X73984002Y-114528296D01*
X73864067Y-114478617D01*
X73644788Y-114435000D01*
X73421212Y-114435000D01*
X73201933Y-114478617D01*
X72995376Y-114564176D01*
X72896000Y-114630577D01*
X72896000Y-114129132D01*
X73017612Y-114007520D01*
X73141824Y-113821624D01*
X73227383Y-113615067D01*
X73271000Y-113395788D01*
X73271000Y-113172212D01*
X73227383Y-112952933D01*
X73141824Y-112746376D01*
X73017612Y-112560480D01*
X72860123Y-112402991D01*
X72890000Y-112252788D01*
X72890000Y-112029212D01*
X72846383Y-111809933D01*
X72760824Y-111603376D01*
X72636612Y-111417480D01*
X72478520Y-111259388D01*
X72292624Y-111135176D01*
X72086067Y-111049617D01*
X71866788Y-111006000D01*
X71643212Y-111006000D01*
X71454000Y-111043636D01*
X71454000Y-110742305D01*
X71462520Y-110736612D01*
X71620612Y-110578520D01*
X71744824Y-110392624D01*
X71779716Y-110308388D01*
X71829817Y-110329141D01*
X72049096Y-110372758D01*
X72272672Y-110372758D01*
X72491951Y-110329141D01*
X72698508Y-110243582D01*
X72884404Y-110119370D01*
X73042496Y-109961278D01*
X73166708Y-109775382D01*
X73252267Y-109568825D01*
X73295884Y-109349546D01*
X73295884Y-109125970D01*
X73252267Y-108906691D01*
X73166708Y-108700134D01*
X73042496Y-108514238D01*
X72884404Y-108356146D01*
X72698508Y-108231934D01*
X72491951Y-108146375D01*
X72272672Y-108102758D01*
X72100686Y-108102758D01*
X71479918Y-107481991D01*
X71580788Y-107481991D01*
X71800067Y-107438374D01*
X72006624Y-107352815D01*
X72192520Y-107228603D01*
X72350612Y-107070511D01*
X72474824Y-106884615D01*
X72560383Y-106678058D01*
X72604000Y-106458779D01*
X72604000Y-106235203D01*
X72560383Y-106015924D01*
X72474824Y-105809367D01*
X72351634Y-105625000D01*
X72536260Y-105625000D01*
X72823158Y-105567932D01*
X73093411Y-105455990D01*
X73336632Y-105293475D01*
X73543475Y-105086632D01*
X73660000Y-104912240D01*
X73776525Y-105086632D01*
G37*
%TD.AperFunction*%
D15*
X59150025Y-111478277D02*
X59177967Y-111512324D01*
X59244998Y-111594002D01*
X59274001Y-111617804D01*
X59779704Y-112123509D01*
X59644010Y-112326589D01*
X59532068Y-112596842D01*
X59475000Y-112883740D01*
X59475000Y-113176260D01*
X59532068Y-113463158D01*
X59644010Y-113733411D01*
X59806525Y-113976632D01*
X59938380Y-114108487D01*
X59865820Y-114130498D01*
X59755506Y-114189463D01*
X59658815Y-114268815D01*
X59579463Y-114365506D01*
X59520498Y-114475820D01*
X59484188Y-114595518D01*
X59471928Y-114720000D01*
X59475000Y-115284250D01*
X59633750Y-115443000D01*
X60833000Y-115443000D01*
X60833000Y-115423000D01*
X61087000Y-115423000D01*
X61087000Y-115443000D01*
X61107000Y-115443000D01*
X61107000Y-115697000D01*
X61087000Y-115697000D01*
X61087000Y-116896250D01*
X61245750Y-117055000D01*
X61375001Y-117055704D01*
X61375001Y-118075456D01*
X61106260Y-118022000D01*
X60813740Y-118022000D01*
X60526842Y-118079068D01*
X60256589Y-118191010D01*
X60013368Y-118353525D01*
X59806525Y-118560368D01*
X59644010Y-118803589D01*
X59532068Y-119073842D01*
X59475000Y-119360740D01*
X59475000Y-119653260D01*
X59532068Y-119940158D01*
X59644010Y-120210411D01*
X59806525Y-120453632D01*
X60013368Y-120660475D01*
X60187760Y-120777000D01*
X60013368Y-120893525D01*
X59806525Y-121100368D01*
X59644010Y-121343589D01*
X59532068Y-121613842D01*
X59475000Y-121900740D01*
X59475000Y-122193260D01*
X59532068Y-122480158D01*
X59644010Y-122750411D01*
X59806525Y-122993632D01*
X60013368Y-123200475D01*
X60195534Y-123322195D01*
X60078645Y-123391822D01*
X59862412Y-123586731D01*
X59688359Y-123820080D01*
X59563175Y-124082901D01*
X59518524Y-124230110D01*
X59639845Y-124460000D01*
X60833000Y-124460000D01*
X60833000Y-124440000D01*
X61087000Y-124440000D01*
X61087000Y-124460000D01*
X61107000Y-124460000D01*
X61107000Y-124714000D01*
X61087000Y-124714000D01*
X61087000Y-125907814D01*
X61316891Y-126028481D01*
X61591252Y-125931157D01*
X61841355Y-125782178D01*
X62057588Y-125587269D01*
X62228900Y-125357594D01*
X62346525Y-125533632D01*
X62553368Y-125740475D01*
X62796589Y-125902990D01*
X63066842Y-126014932D01*
X63353740Y-126072000D01*
X63646260Y-126072000D01*
X63933158Y-126014932D01*
X64203411Y-125902990D01*
X64446632Y-125740475D01*
X64653475Y-125533632D01*
X64778178Y-125347000D01*
X65367678Y-125347000D01*
X65405000Y-125350676D01*
X65442322Y-125347000D01*
X65442333Y-125347000D01*
X65553986Y-125336003D01*
X65697247Y-125292546D01*
X65829276Y-125221974D01*
X65945001Y-125127001D01*
X65968804Y-125097998D01*
X66550000Y-124516801D01*
X66550000Y-126781928D01*
X66460000Y-126781928D01*
X66335518Y-126794188D01*
X66215820Y-126830498D01*
X66105506Y-126889463D01*
X66008815Y-126968815D01*
X65929463Y-127065506D01*
X65870498Y-127175820D01*
X65834188Y-127295518D01*
X65821928Y-127420000D01*
X65821928Y-127992129D01*
X65403000Y-127573201D01*
X65403000Y-126910333D01*
X65406677Y-126873000D01*
X65392003Y-126724014D01*
X65348546Y-126580753D01*
X65277974Y-126448724D01*
X65183001Y-126332999D01*
X65067276Y-126238026D01*
X64935247Y-126167454D01*
X64791986Y-126123997D01*
X64680333Y-126113000D01*
X64643000Y-126109323D01*
X64605667Y-126113000D01*
X60535132Y-126113000D01*
X60413520Y-125991388D01*
X60279264Y-125901681D01*
X60328748Y-125931157D01*
X60603109Y-126028481D01*
X60833000Y-125907814D01*
X60833000Y-124714000D01*
X59639845Y-124714000D01*
X59518524Y-124943890D01*
X59563175Y-125091099D01*
X59688359Y-125353920D01*
X59862412Y-125587269D01*
X60078645Y-125782178D01*
X60206989Y-125858629D01*
X60021067Y-125781617D01*
X59801788Y-125738000D01*
X59578212Y-125738000D01*
X59358933Y-125781617D01*
X59152376Y-125867176D01*
X59080000Y-125915536D01*
X59080000Y-116420000D01*
X59471928Y-116420000D01*
X59484188Y-116544482D01*
X59520498Y-116664180D01*
X59579463Y-116774494D01*
X59658815Y-116871185D01*
X59755506Y-116950537D01*
X59865820Y-117009502D01*
X59985518Y-117045812D01*
X60110000Y-117058072D01*
X60674250Y-117055000D01*
X60833000Y-116896250D01*
X60833000Y-115697000D01*
X59633750Y-115697000D01*
X59475000Y-115855750D01*
X59471928Y-116420000D01*
X59080000Y-116420000D01*
X59080000Y-111347270D01*
X59150025Y-111478277D01*
%TA.AperFunction,Conductor*%
D16*
G36*
X59150025Y-111478277D02*
G01*
X59177967Y-111512324D01*
X59244998Y-111594002D01*
X59274001Y-111617804D01*
X59779704Y-112123509D01*
X59644010Y-112326589D01*
X59532068Y-112596842D01*
X59475000Y-112883740D01*
X59475000Y-113176260D01*
X59532068Y-113463158D01*
X59644010Y-113733411D01*
X59806525Y-113976632D01*
X59938380Y-114108487D01*
X59865820Y-114130498D01*
X59755506Y-114189463D01*
X59658815Y-114268815D01*
X59579463Y-114365506D01*
X59520498Y-114475820D01*
X59484188Y-114595518D01*
X59471928Y-114720000D01*
X59475000Y-115284250D01*
X59633750Y-115443000D01*
X60833000Y-115443000D01*
X60833000Y-115423000D01*
X61087000Y-115423000D01*
X61087000Y-115443000D01*
X61107000Y-115443000D01*
X61107000Y-115697000D01*
X61087000Y-115697000D01*
X61087000Y-116896250D01*
X61245750Y-117055000D01*
X61375001Y-117055704D01*
X61375001Y-118075456D01*
X61106260Y-118022000D01*
X60813740Y-118022000D01*
X60526842Y-118079068D01*
X60256589Y-118191010D01*
X60013368Y-118353525D01*
X59806525Y-118560368D01*
X59644010Y-118803589D01*
X59532068Y-119073842D01*
X59475000Y-119360740D01*
X59475000Y-119653260D01*
X59532068Y-119940158D01*
X59644010Y-120210411D01*
X59806525Y-120453632D01*
X60013368Y-120660475D01*
X60187760Y-120777000D01*
X60013368Y-120893525D01*
X59806525Y-121100368D01*
X59644010Y-121343589D01*
X59532068Y-121613842D01*
X59475000Y-121900740D01*
X59475000Y-122193260D01*
X59532068Y-122480158D01*
X59644010Y-122750411D01*
X59806525Y-122993632D01*
X60013368Y-123200475D01*
X60195534Y-123322195D01*
X60078645Y-123391822D01*
X59862412Y-123586731D01*
X59688359Y-123820080D01*
X59563175Y-124082901D01*
X59518524Y-124230110D01*
X59639845Y-124460000D01*
X60833000Y-124460000D01*
X60833000Y-124440000D01*
X61087000Y-124440000D01*
X61087000Y-124460000D01*
X61107000Y-124460000D01*
X61107000Y-124714000D01*
X61087000Y-124714000D01*
X61087000Y-125907814D01*
X61316891Y-126028481D01*
X61591252Y-125931157D01*
X61841355Y-125782178D01*
X62057588Y-125587269D01*
X62228900Y-125357594D01*
X62346525Y-125533632D01*
X62553368Y-125740475D01*
X62796589Y-125902990D01*
X63066842Y-126014932D01*
X63353740Y-126072000D01*
X63646260Y-126072000D01*
X63933158Y-126014932D01*
X64203411Y-125902990D01*
X64446632Y-125740475D01*
X64653475Y-125533632D01*
X64778178Y-125347000D01*
X65367678Y-125347000D01*
X65405000Y-125350676D01*
X65442322Y-125347000D01*
X65442333Y-125347000D01*
X65553986Y-125336003D01*
X65697247Y-125292546D01*
X65829276Y-125221974D01*
X65945001Y-125127001D01*
X65968804Y-125097998D01*
X66550000Y-124516801D01*
X66550000Y-126781928D01*
X66460000Y-126781928D01*
X66335518Y-126794188D01*
X66215820Y-126830498D01*
X66105506Y-126889463D01*
X66008815Y-126968815D01*
X65929463Y-127065506D01*
X65870498Y-127175820D01*
X65834188Y-127295518D01*
X65821928Y-127420000D01*
X65821928Y-127992129D01*
X65403000Y-127573201D01*
X65403000Y-126910333D01*
X65406677Y-126873000D01*
X65392003Y-126724014D01*
X65348546Y-126580753D01*
X65277974Y-126448724D01*
X65183001Y-126332999D01*
X65067276Y-126238026D01*
X64935247Y-126167454D01*
X64791986Y-126123997D01*
X64680333Y-126113000D01*
X64643000Y-126109323D01*
X64605667Y-126113000D01*
X60535132Y-126113000D01*
X60413520Y-125991388D01*
X60279264Y-125901681D01*
X60328748Y-125931157D01*
X60603109Y-126028481D01*
X60833000Y-125907814D01*
X60833000Y-124714000D01*
X59639845Y-124714000D01*
X59518524Y-124943890D01*
X59563175Y-125091099D01*
X59688359Y-125353920D01*
X59862412Y-125587269D01*
X60078645Y-125782178D01*
X60206989Y-125858629D01*
X60021067Y-125781617D01*
X59801788Y-125738000D01*
X59578212Y-125738000D01*
X59358933Y-125781617D01*
X59152376Y-125867176D01*
X59080000Y-125915536D01*
X59080000Y-116420000D01*
X59471928Y-116420000D01*
X59484188Y-116544482D01*
X59520498Y-116664180D01*
X59579463Y-116774494D01*
X59658815Y-116871185D01*
X59755506Y-116950537D01*
X59865820Y-117009502D01*
X59985518Y-117045812D01*
X60110000Y-117058072D01*
X60674250Y-117055000D01*
X60833000Y-116896250D01*
X60833000Y-115697000D01*
X59633750Y-115697000D01*
X59475000Y-115855750D01*
X59471928Y-116420000D01*
X59080000Y-116420000D01*
X59080000Y-111347270D01*
X59150025Y-111478277D01*
G37*
%TD.AperFunction*%
D15*
X92980630Y-102394933D02*
X92768254Y-102712776D01*
X92621966Y-103065945D01*
X92547390Y-103440867D01*
X92547390Y-103823133D01*
X92621966Y-104198055D01*
X92768254Y-104551224D01*
X92980630Y-104869067D01*
X93250933Y-105139370D01*
X93568776Y-105351746D01*
X93921945Y-105498034D01*
X94296867Y-105572610D01*
X94679133Y-105572610D01*
X95054055Y-105498034D01*
X95407224Y-105351746D01*
X95725067Y-105139370D01*
X95860001Y-105004436D01*
X95860000Y-121582198D01*
X92474778Y-118196977D01*
X92533067Y-118185383D01*
X92739624Y-118099824D01*
X92925520Y-117975612D01*
X93083612Y-117817520D01*
X93207824Y-117631624D01*
X93293383Y-117425067D01*
X93337000Y-117205788D01*
X93337000Y-116982212D01*
X93293383Y-116762933D01*
X93207824Y-116556376D01*
X93083612Y-116370480D01*
X92962000Y-116248868D01*
X92962000Y-111216110D01*
X93041067Y-111200383D01*
X93247624Y-111114824D01*
X93433520Y-110990612D01*
X93591612Y-110832520D01*
X93715824Y-110646624D01*
X93801383Y-110440067D01*
X93845000Y-110220788D01*
X93845000Y-109997212D01*
X93801383Y-109777933D01*
X93715824Y-109571376D01*
X93591612Y-109385480D01*
X93433520Y-109227388D01*
X93247624Y-109103176D01*
X93041067Y-109017617D01*
X92821788Y-108974000D01*
X92598212Y-108974000D01*
X92378933Y-109017617D01*
X92172376Y-109103176D01*
X91986480Y-109227388D01*
X91828388Y-109385480D01*
X91704176Y-109571376D01*
X91618617Y-109777933D01*
X91575000Y-109997212D01*
X91575000Y-110183008D01*
X91567026Y-110192724D01*
X91496454Y-110324754D01*
X91483942Y-110366002D01*
X91454136Y-110464265D01*
X91452998Y-110468015D01*
X91438588Y-110614320D01*
X91263067Y-110541617D01*
X91043788Y-110498000D01*
X90820212Y-110498000D01*
X90600933Y-110541617D01*
X90394376Y-110627176D01*
X90208480Y-110751388D01*
X90050388Y-110909480D01*
X89926176Y-111095376D01*
X89840617Y-111301933D01*
X89824890Y-111381000D01*
X77045132Y-111381000D01*
X76923520Y-111259388D01*
X76737624Y-111135176D01*
X76531067Y-111049617D01*
X76452000Y-111033890D01*
X76452000Y-105222107D01*
X76523368Y-105293475D01*
X76766589Y-105455990D01*
X77036842Y-105567932D01*
X77323740Y-105625000D01*
X77616260Y-105625000D01*
X77903158Y-105567932D01*
X78173411Y-105455990D01*
X78416632Y-105293475D01*
X78623475Y-105086632D01*
X78785990Y-104843411D01*
X78897932Y-104573158D01*
X78955000Y-104286260D01*
X78955000Y-103993740D01*
X78901544Y-103724999D01*
X82294842Y-103724999D01*
X82331928Y-103762085D01*
X82331928Y-104990000D01*
X82344188Y-105114482D01*
X82380498Y-105234180D01*
X82439463Y-105344494D01*
X82518815Y-105441185D01*
X82615506Y-105520537D01*
X82725820Y-105579502D01*
X82845518Y-105615812D01*
X82970000Y-105628072D01*
X84670000Y-105628072D01*
X84794482Y-105615812D01*
X84914180Y-105579502D01*
X85024494Y-105520537D01*
X85121185Y-105441185D01*
X85200537Y-105344494D01*
X85259502Y-105234180D01*
X85283966Y-105153534D01*
X85359731Y-105237588D01*
X85593080Y-105411641D01*
X85855901Y-105536825D01*
X86003110Y-105581476D01*
X86233000Y-105460155D01*
X86233000Y-104267000D01*
X86487000Y-104267000D01*
X86487000Y-105460155D01*
X86716890Y-105581476D01*
X86864099Y-105536825D01*
X87126920Y-105411641D01*
X87360269Y-105237588D01*
X87555178Y-105021355D01*
X87704157Y-104771252D01*
X87801481Y-104496891D01*
X87680814Y-104267000D01*
X86487000Y-104267000D01*
X86233000Y-104267000D01*
X86213000Y-104267000D01*
X86213000Y-104013000D01*
X86233000Y-104013000D01*
X86233000Y-102819845D01*
X86487000Y-102819845D01*
X86487000Y-104013000D01*
X87680814Y-104013000D01*
X87801481Y-103783109D01*
X87704157Y-103508748D01*
X87555178Y-103258645D01*
X87360269Y-103042412D01*
X87126920Y-102868359D01*
X86864099Y-102743175D01*
X86716890Y-102698524D01*
X86487000Y-102819845D01*
X86233000Y-102819845D01*
X86003110Y-102698524D01*
X85855901Y-102743175D01*
X85593080Y-102868359D01*
X85359731Y-103042412D01*
X85283966Y-103126466D01*
X85259502Y-103045820D01*
X85200537Y-102935506D01*
X85121185Y-102838815D01*
X85024494Y-102759463D01*
X84914180Y-102700498D01*
X84794482Y-102664188D01*
X84670000Y-102651928D01*
X83442085Y-102651928D01*
X83202346Y-102412189D01*
X83177763Y-102382235D01*
X83058232Y-102284137D01*
X83013074Y-102260000D01*
X93115563Y-102260000D01*
X92980630Y-102394933D01*
%TA.AperFunction,Conductor*%
D16*
G36*
X92980630Y-102394933D02*
G01*
X92768254Y-102712776D01*
X92621966Y-103065945D01*
X92547390Y-103440867D01*
X92547390Y-103823133D01*
X92621966Y-104198055D01*
X92768254Y-104551224D01*
X92980630Y-104869067D01*
X93250933Y-105139370D01*
X93568776Y-105351746D01*
X93921945Y-105498034D01*
X94296867Y-105572610D01*
X94679133Y-105572610D01*
X95054055Y-105498034D01*
X95407224Y-105351746D01*
X95725067Y-105139370D01*
X95860001Y-105004436D01*
X95860000Y-121582198D01*
X92474778Y-118196977D01*
X92533067Y-118185383D01*
X92739624Y-118099824D01*
X92925520Y-117975612D01*
X93083612Y-117817520D01*
X93207824Y-117631624D01*
X93293383Y-117425067D01*
X93337000Y-117205788D01*
X93337000Y-116982212D01*
X93293383Y-116762933D01*
X93207824Y-116556376D01*
X93083612Y-116370480D01*
X92962000Y-116248868D01*
X92962000Y-111216110D01*
X93041067Y-111200383D01*
X93247624Y-111114824D01*
X93433520Y-110990612D01*
X93591612Y-110832520D01*
X93715824Y-110646624D01*
X93801383Y-110440067D01*
X93845000Y-110220788D01*
X93845000Y-109997212D01*
X93801383Y-109777933D01*
X93715824Y-109571376D01*
X93591612Y-109385480D01*
X93433520Y-109227388D01*
X93247624Y-109103176D01*
X93041067Y-109017617D01*
X92821788Y-108974000D01*
X92598212Y-108974000D01*
X92378933Y-109017617D01*
X92172376Y-109103176D01*
X91986480Y-109227388D01*
X91828388Y-109385480D01*
X91704176Y-109571376D01*
X91618617Y-109777933D01*
X91575000Y-109997212D01*
X91575000Y-110183008D01*
X91567026Y-110192724D01*
X91496454Y-110324754D01*
X91483942Y-110366002D01*
X91454136Y-110464265D01*
X91452998Y-110468015D01*
X91438588Y-110614320D01*
X91263067Y-110541617D01*
X91043788Y-110498000D01*
X90820212Y-110498000D01*
X90600933Y-110541617D01*
X90394376Y-110627176D01*
X90208480Y-110751388D01*
X90050388Y-110909480D01*
X89926176Y-111095376D01*
X89840617Y-111301933D01*
X89824890Y-111381000D01*
X77045132Y-111381000D01*
X76923520Y-111259388D01*
X76737624Y-111135176D01*
X76531067Y-111049617D01*
X76452000Y-111033890D01*
X76452000Y-105222107D01*
X76523368Y-105293475D01*
X76766589Y-105455990D01*
X77036842Y-105567932D01*
X77323740Y-105625000D01*
X77616260Y-105625000D01*
X77903158Y-105567932D01*
X78173411Y-105455990D01*
X78416632Y-105293475D01*
X78623475Y-105086632D01*
X78785990Y-104843411D01*
X78897932Y-104573158D01*
X78955000Y-104286260D01*
X78955000Y-103993740D01*
X78901544Y-103724999D01*
X82294842Y-103724999D01*
X82331928Y-103762085D01*
X82331928Y-104990000D01*
X82344188Y-105114482D01*
X82380498Y-105234180D01*
X82439463Y-105344494D01*
X82518815Y-105441185D01*
X82615506Y-105520537D01*
X82725820Y-105579502D01*
X82845518Y-105615812D01*
X82970000Y-105628072D01*
X84670000Y-105628072D01*
X84794482Y-105615812D01*
X84914180Y-105579502D01*
X85024494Y-105520537D01*
X85121185Y-105441185D01*
X85200537Y-105344494D01*
X85259502Y-105234180D01*
X85283966Y-105153534D01*
X85359731Y-105237588D01*
X85593080Y-105411641D01*
X85855901Y-105536825D01*
X86003110Y-105581476D01*
X86233000Y-105460155D01*
X86233000Y-104267000D01*
X86487000Y-104267000D01*
X86487000Y-105460155D01*
X86716890Y-105581476D01*
X86864099Y-105536825D01*
X87126920Y-105411641D01*
X87360269Y-105237588D01*
X87555178Y-105021355D01*
X87704157Y-104771252D01*
X87801481Y-104496891D01*
X87680814Y-104267000D01*
X86487000Y-104267000D01*
X86233000Y-104267000D01*
X86213000Y-104267000D01*
X86213000Y-104013000D01*
X86233000Y-104013000D01*
X86233000Y-102819845D01*
X86487000Y-102819845D01*
X86487000Y-104013000D01*
X87680814Y-104013000D01*
X87801481Y-103783109D01*
X87704157Y-103508748D01*
X87555178Y-103258645D01*
X87360269Y-103042412D01*
X87126920Y-102868359D01*
X86864099Y-102743175D01*
X86716890Y-102698524D01*
X86487000Y-102819845D01*
X86233000Y-102819845D01*
X86003110Y-102698524D01*
X85855901Y-102743175D01*
X85593080Y-102868359D01*
X85359731Y-103042412D01*
X85283966Y-103126466D01*
X85259502Y-103045820D01*
X85200537Y-102935506D01*
X85121185Y-102838815D01*
X85024494Y-102759463D01*
X84914180Y-102700498D01*
X84794482Y-102664188D01*
X84670000Y-102651928D01*
X83442085Y-102651928D01*
X83202346Y-102412189D01*
X83177763Y-102382235D01*
X83058232Y-102284137D01*
X83013074Y-102260000D01*
X93115563Y-102260000D01*
X92980630Y-102394933D01*
G37*
%TD.AperFunction*%
D15*
X70578095Y-108729770D02*
X70407933Y-108763617D01*
X70201376Y-108849176D01*
X70015480Y-108973388D01*
X69857388Y-109131480D01*
X69733176Y-109317376D01*
X69647617Y-109523933D01*
X69604000Y-109743212D01*
X69604000Y-109966788D01*
X69647617Y-110186067D01*
X69733176Y-110392624D01*
X69857388Y-110578520D01*
X69884001Y-110605133D01*
X69884000Y-113926860D01*
X69787388Y-114023472D01*
X69663176Y-114209368D01*
X69577617Y-114415925D01*
X69534000Y-114635204D01*
X69534000Y-114858780D01*
X69577617Y-115078059D01*
X69663176Y-115284616D01*
X69787388Y-115470512D01*
X69945480Y-115628604D01*
X70131376Y-115752816D01*
X70337933Y-115838375D01*
X70557212Y-115881992D01*
X70780788Y-115881992D01*
X70925991Y-115853110D01*
X70925991Y-116842104D01*
X70921799Y-116836997D01*
X70898001Y-116807999D01*
X70869003Y-116784201D01*
X68445000Y-114360199D01*
X68445000Y-114188212D01*
X68401383Y-113968933D01*
X68315824Y-113762376D01*
X68191612Y-113576480D01*
X68033520Y-113418388D01*
X67916893Y-113340460D01*
X67934824Y-113313624D01*
X68020383Y-113107067D01*
X68064000Y-112887788D01*
X68064000Y-112664212D01*
X68020383Y-112444933D01*
X67934824Y-112238376D01*
X67810612Y-112052480D01*
X67652520Y-111894388D01*
X67466624Y-111770176D01*
X67260067Y-111684617D01*
X67040788Y-111641000D01*
X66817212Y-111641000D01*
X66597933Y-111684617D01*
X66391376Y-111770176D01*
X66205480Y-111894388D01*
X66047388Y-112052480D01*
X65923176Y-112238376D01*
X65837617Y-112444933D01*
X65794000Y-112664212D01*
X65794000Y-112836197D01*
X65784000Y-112846197D01*
X65784000Y-110400322D01*
X65787676Y-110362999D01*
X65784000Y-110325676D01*
X65784000Y-110325667D01*
X65773003Y-110214014D01*
X65729546Y-110070753D01*
X65658974Y-109938724D01*
X65564001Y-109822999D01*
X65534998Y-109799197D01*
X65264794Y-109528993D01*
X65240991Y-109499989D01*
X65125266Y-109405016D01*
X64993237Y-109334444D01*
X64849976Y-109290987D01*
X64738323Y-109279990D01*
X64738312Y-109279990D01*
X64700990Y-109276314D01*
X64663668Y-109279990D01*
X62863000Y-109279990D01*
X62863000Y-109130322D01*
X62866676Y-109092999D01*
X62863000Y-109055676D01*
X62863000Y-109055667D01*
X62852003Y-108944014D01*
X62808546Y-108800753D01*
X62765382Y-108720000D01*
X62737974Y-108668723D01*
X62666799Y-108581997D01*
X62643001Y-108552999D01*
X62614004Y-108529202D01*
X62401210Y-108316408D01*
X62435106Y-108145999D01*
X69994324Y-108145999D01*
X70578095Y-108729770D01*
%TA.AperFunction,Conductor*%
D16*
G36*
X70578095Y-108729770D02*
G01*
X70407933Y-108763617D01*
X70201376Y-108849176D01*
X70015480Y-108973388D01*
X69857388Y-109131480D01*
X69733176Y-109317376D01*
X69647617Y-109523933D01*
X69604000Y-109743212D01*
X69604000Y-109966788D01*
X69647617Y-110186067D01*
X69733176Y-110392624D01*
X69857388Y-110578520D01*
X69884001Y-110605133D01*
X69884000Y-113926860D01*
X69787388Y-114023472D01*
X69663176Y-114209368D01*
X69577617Y-114415925D01*
X69534000Y-114635204D01*
X69534000Y-114858780D01*
X69577617Y-115078059D01*
X69663176Y-115284616D01*
X69787388Y-115470512D01*
X69945480Y-115628604D01*
X70131376Y-115752816D01*
X70337933Y-115838375D01*
X70557212Y-115881992D01*
X70780788Y-115881992D01*
X70925991Y-115853110D01*
X70925991Y-116842104D01*
X70921799Y-116836997D01*
X70898001Y-116807999D01*
X70869003Y-116784201D01*
X68445000Y-114360199D01*
X68445000Y-114188212D01*
X68401383Y-113968933D01*
X68315824Y-113762376D01*
X68191612Y-113576480D01*
X68033520Y-113418388D01*
X67916893Y-113340460D01*
X67934824Y-113313624D01*
X68020383Y-113107067D01*
X68064000Y-112887788D01*
X68064000Y-112664212D01*
X68020383Y-112444933D01*
X67934824Y-112238376D01*
X67810612Y-112052480D01*
X67652520Y-111894388D01*
X67466624Y-111770176D01*
X67260067Y-111684617D01*
X67040788Y-111641000D01*
X66817212Y-111641000D01*
X66597933Y-111684617D01*
X66391376Y-111770176D01*
X66205480Y-111894388D01*
X66047388Y-112052480D01*
X65923176Y-112238376D01*
X65837617Y-112444933D01*
X65794000Y-112664212D01*
X65794000Y-112836197D01*
X65784000Y-112846197D01*
X65784000Y-110400322D01*
X65787676Y-110362999D01*
X65784000Y-110325676D01*
X65784000Y-110325667D01*
X65773003Y-110214014D01*
X65729546Y-110070753D01*
X65658974Y-109938724D01*
X65564001Y-109822999D01*
X65534998Y-109799197D01*
X65264794Y-109528993D01*
X65240991Y-109499989D01*
X65125266Y-109405016D01*
X64993237Y-109334444D01*
X64849976Y-109290987D01*
X64738323Y-109279990D01*
X64738312Y-109279990D01*
X64700990Y-109276314D01*
X64663668Y-109279990D01*
X62863000Y-109279990D01*
X62863000Y-109130322D01*
X62866676Y-109092999D01*
X62863000Y-109055676D01*
X62863000Y-109055667D01*
X62852003Y-108944014D01*
X62808546Y-108800753D01*
X62765382Y-108720000D01*
X62737974Y-108668723D01*
X62666799Y-108581997D01*
X62643001Y-108552999D01*
X62614004Y-108529202D01*
X62401210Y-108316408D01*
X62435106Y-108145999D01*
X69994324Y-108145999D01*
X70578095Y-108729770D01*
G37*
%TD.AperFunction*%
D15*
X73151768Y-102284137D02*
X73032237Y-102382235D01*
X73007654Y-102412189D01*
X72726918Y-102692925D01*
X72536260Y-102655000D01*
X72243740Y-102655000D01*
X71956842Y-102712068D01*
X71686589Y-102824010D01*
X71443368Y-102986525D01*
X71311513Y-103118380D01*
X71289502Y-103045820D01*
X71230537Y-102935506D01*
X71151185Y-102838815D01*
X71054494Y-102759463D01*
X70944180Y-102700498D01*
X70824482Y-102664188D01*
X70700000Y-102651928D01*
X70135750Y-102655000D01*
X69977000Y-102813750D01*
X69977000Y-104013000D01*
X69997000Y-104013000D01*
X69997000Y-104267000D01*
X69977000Y-104267000D01*
X69977000Y-105466250D01*
X70135750Y-105625000D01*
X70584733Y-105627444D01*
X70463176Y-105809367D01*
X70377617Y-106015924D01*
X70334000Y-106235203D01*
X70334000Y-106458779D01*
X70367678Y-106628089D01*
X70346458Y-106625999D01*
X70346447Y-106625999D01*
X70309125Y-106622323D01*
X70271803Y-106625999D01*
X62449803Y-106625999D01*
X62087804Y-106264001D01*
X62064002Y-106234998D01*
X61948277Y-106140025D01*
X61816248Y-106069453D01*
X61672987Y-106025996D01*
X61561334Y-106014999D01*
X61561323Y-106014999D01*
X61524001Y-106011323D01*
X61486679Y-106014999D01*
X60433321Y-106014999D01*
X60395998Y-106011323D01*
X60358675Y-106014999D01*
X60358666Y-106014999D01*
X60247013Y-106025996D01*
X60103752Y-106069453D01*
X59971723Y-106140025D01*
X59971721Y-106140026D01*
X59971722Y-106140026D01*
X59884995Y-106211200D01*
X59884991Y-106211204D01*
X59855998Y-106234998D01*
X59832204Y-106263991D01*
X59273997Y-106822200D01*
X59244999Y-106845998D01*
X59221202Y-106874995D01*
X59221200Y-106874997D01*
X59150025Y-106961723D01*
X59080000Y-107092730D01*
X59080000Y-105004437D01*
X59214933Y-105139370D01*
X59532776Y-105351746D01*
X59885945Y-105498034D01*
X60260867Y-105572610D01*
X60643133Y-105572610D01*
X61018055Y-105498034D01*
X61371224Y-105351746D01*
X61689067Y-105139370D01*
X61838437Y-104990000D01*
X68361928Y-104990000D01*
X68374188Y-105114482D01*
X68410498Y-105234180D01*
X68469463Y-105344494D01*
X68548815Y-105441185D01*
X68645506Y-105520537D01*
X68755820Y-105579502D01*
X68875518Y-105615812D01*
X69000000Y-105628072D01*
X69564250Y-105625000D01*
X69723000Y-105466250D01*
X69723000Y-104267000D01*
X68523750Y-104267000D01*
X68365000Y-104425750D01*
X68361928Y-104990000D01*
X61838437Y-104990000D01*
X61959370Y-104869067D01*
X62171746Y-104551224D01*
X62318034Y-104198055D01*
X62392610Y-103823133D01*
X62392610Y-103440867D01*
X62362601Y-103290000D01*
X68361928Y-103290000D01*
X68365000Y-103854250D01*
X68523750Y-104013000D01*
X69723000Y-104013000D01*
X69723000Y-102813750D01*
X69564250Y-102655000D01*
X69000000Y-102651928D01*
X68875518Y-102664188D01*
X68755820Y-102700498D01*
X68645506Y-102759463D01*
X68548815Y-102838815D01*
X68469463Y-102935506D01*
X68410498Y-103045820D01*
X68374188Y-103165518D01*
X68361928Y-103290000D01*
X62362601Y-103290000D01*
X62318034Y-103065945D01*
X62171746Y-102712776D01*
X61959370Y-102394933D01*
X61824437Y-102260000D01*
X73196926Y-102260000D01*
X73151768Y-102284137D01*
%TA.AperFunction,Conductor*%
D16*
G36*
X73151768Y-102284137D02*
G01*
X73032237Y-102382235D01*
X73007654Y-102412189D01*
X72726918Y-102692925D01*
X72536260Y-102655000D01*
X72243740Y-102655000D01*
X71956842Y-102712068D01*
X71686589Y-102824010D01*
X71443368Y-102986525D01*
X71311513Y-103118380D01*
X71289502Y-103045820D01*
X71230537Y-102935506D01*
X71151185Y-102838815D01*
X71054494Y-102759463D01*
X70944180Y-102700498D01*
X70824482Y-102664188D01*
X70700000Y-102651928D01*
X70135750Y-102655000D01*
X69977000Y-102813750D01*
X69977000Y-104013000D01*
X69997000Y-104013000D01*
X69997000Y-104267000D01*
X69977000Y-104267000D01*
X69977000Y-105466250D01*
X70135750Y-105625000D01*
X70584733Y-105627444D01*
X70463176Y-105809367D01*
X70377617Y-106015924D01*
X70334000Y-106235203D01*
X70334000Y-106458779D01*
X70367678Y-106628089D01*
X70346458Y-106625999D01*
X70346447Y-106625999D01*
X70309125Y-106622323D01*
X70271803Y-106625999D01*
X62449803Y-106625999D01*
X62087804Y-106264001D01*
X62064002Y-106234998D01*
X61948277Y-106140025D01*
X61816248Y-106069453D01*
X61672987Y-106025996D01*
X61561334Y-106014999D01*
X61561323Y-106014999D01*
X61524001Y-106011323D01*
X61486679Y-106014999D01*
X60433321Y-106014999D01*
X60395998Y-106011323D01*
X60358675Y-106014999D01*
X60358666Y-106014999D01*
X60247013Y-106025996D01*
X60103752Y-106069453D01*
X59971723Y-106140025D01*
X59971721Y-106140026D01*
X59971722Y-106140026D01*
X59884995Y-106211200D01*
X59884991Y-106211204D01*
X59855998Y-106234998D01*
X59832204Y-106263991D01*
X59273997Y-106822200D01*
X59244999Y-106845998D01*
X59221202Y-106874995D01*
X59221200Y-106874997D01*
X59150025Y-106961723D01*
X59080000Y-107092730D01*
X59080000Y-105004437D01*
X59214933Y-105139370D01*
X59532776Y-105351746D01*
X59885945Y-105498034D01*
X60260867Y-105572610D01*
X60643133Y-105572610D01*
X61018055Y-105498034D01*
X61371224Y-105351746D01*
X61689067Y-105139370D01*
X61838437Y-104990000D01*
X68361928Y-104990000D01*
X68374188Y-105114482D01*
X68410498Y-105234180D01*
X68469463Y-105344494D01*
X68548815Y-105441185D01*
X68645506Y-105520537D01*
X68755820Y-105579502D01*
X68875518Y-105615812D01*
X69000000Y-105628072D01*
X69564250Y-105625000D01*
X69723000Y-105466250D01*
X69723000Y-104267000D01*
X68523750Y-104267000D01*
X68365000Y-104425750D01*
X68361928Y-104990000D01*
X61838437Y-104990000D01*
X61959370Y-104869067D01*
X62171746Y-104551224D01*
X62318034Y-104198055D01*
X62392610Y-103823133D01*
X62392610Y-103440867D01*
X62362601Y-103290000D01*
X68361928Y-103290000D01*
X68365000Y-103854250D01*
X68523750Y-104013000D01*
X69723000Y-104013000D01*
X69723000Y-102813750D01*
X69564250Y-102655000D01*
X69000000Y-102651928D01*
X68875518Y-102664188D01*
X68755820Y-102700498D01*
X68645506Y-102759463D01*
X68548815Y-102838815D01*
X68469463Y-102935506D01*
X68410498Y-103045820D01*
X68374188Y-103165518D01*
X68361928Y-103290000D01*
X62362601Y-103290000D01*
X62318034Y-103065945D01*
X62171746Y-102712776D01*
X61959370Y-102394933D01*
X61824437Y-102260000D01*
X73196926Y-102260000D01*
X73151768Y-102284137D01*
G37*
%TD.AperFunction*%
%TD*%
M02*
