%TF.GenerationSoftware,KiCad,Pcbnew,(5.1.10-1-10_14)*%
%TF.CreationDate,2021-08-15T15:03:56-03:00*%
%TF.ProjectId,bacee,62616365-652e-46b6-9963-61645f706362,1*%
%TF.SameCoordinates,Original*%
%TF.FileFunction,Paste,Top*%
%TF.FilePolarity,Positive*%
%FSLAX46Y46*%
G04 Gerber Fmt 4.6, Leading zero omitted, Abs format (unit mm)*
G04 Created by KiCad (PCBNEW (5.1.10-1-10_14)) date 2021-08-15 15:03:56*
%MOMM*%
%LPD*%
G01*
G04 APERTURE LIST*
%ADD10R,1.700000X0.650000*%
%ADD11R,1.500000X0.550000*%
%ADD12R,0.550000X1.500000*%
%ADD13R,1.800000X1.000000*%
%ADD14R,3.500000X2.400000*%
G04 APERTURE END LIST*
%TO.C,C1*%
G36*
G01*
X92887250Y-124608500D02*
X92024750Y-124608500D01*
G75*
G02*
X91816000Y-124399750I0J208750D01*
G01*
X91816000Y-123982250D01*
G75*
G02*
X92024750Y-123773500I208750J0D01*
G01*
X92887250Y-123773500D01*
G75*
G02*
X93096000Y-123982250I0J-208750D01*
G01*
X93096000Y-124399750D01*
G75*
G02*
X92887250Y-124608500I-208750J0D01*
G01*
G37*
G36*
G01*
X92887250Y-123353500D02*
X92024750Y-123353500D01*
G75*
G02*
X91816000Y-123144750I0J208750D01*
G01*
X91816000Y-122727250D01*
G75*
G02*
X92024750Y-122518500I208750J0D01*
G01*
X92887250Y-122518500D01*
G75*
G02*
X93096000Y-122727250I0J-208750D01*
G01*
X93096000Y-123144750D01*
G75*
G02*
X92887250Y-123353500I-208750J0D01*
G01*
G37*
%TD*%
%TO.C,C2*%
G36*
G01*
X95046250Y-123353500D02*
X94183750Y-123353500D01*
G75*
G02*
X93975000Y-123144750I0J208750D01*
G01*
X93975000Y-122727250D01*
G75*
G02*
X94183750Y-122518500I208750J0D01*
G01*
X95046250Y-122518500D01*
G75*
G02*
X95255000Y-122727250I0J-208750D01*
G01*
X95255000Y-123144750D01*
G75*
G02*
X95046250Y-123353500I-208750J0D01*
G01*
G37*
G36*
G01*
X95046250Y-124608500D02*
X94183750Y-124608500D01*
G75*
G02*
X93975000Y-124399750I0J208750D01*
G01*
X93975000Y-123982250D01*
G75*
G02*
X94183750Y-123773500I208750J0D01*
G01*
X95046250Y-123773500D01*
G75*
G02*
X95255000Y-123982250I0J-208750D01*
G01*
X95255000Y-124399750D01*
G75*
G02*
X95046250Y-124608500I-208750J0D01*
G01*
G37*
%TD*%
%TO.C,C3*%
G36*
G01*
X89357750Y-102833500D02*
X90220250Y-102833500D01*
G75*
G02*
X90429000Y-103042250I0J-208750D01*
G01*
X90429000Y-103459750D01*
G75*
G02*
X90220250Y-103668500I-208750J0D01*
G01*
X89357750Y-103668500D01*
G75*
G02*
X89149000Y-103459750I0J208750D01*
G01*
X89149000Y-103042250D01*
G75*
G02*
X89357750Y-102833500I208750J0D01*
G01*
G37*
G36*
G01*
X89357750Y-104088500D02*
X90220250Y-104088500D01*
G75*
G02*
X90429000Y-104297250I0J-208750D01*
G01*
X90429000Y-104714750D01*
G75*
G02*
X90220250Y-104923500I-208750J0D01*
G01*
X89357750Y-104923500D01*
G75*
G02*
X89149000Y-104714750I0J208750D01*
G01*
X89149000Y-104297250D01*
G75*
G02*
X89357750Y-104088500I208750J0D01*
G01*
G37*
%TD*%
%TO.C,D1*%
G36*
G01*
X77920001Y-109940000D02*
X77019999Y-109940000D01*
G75*
G02*
X76770000Y-109690001I0J249999D01*
G01*
X76770000Y-109039999D01*
G75*
G02*
X77019999Y-108790000I249999J0D01*
G01*
X77920001Y-108790000D01*
G75*
G02*
X78170000Y-109039999I0J-249999D01*
G01*
X78170000Y-109690001D01*
G75*
G02*
X77920001Y-109940000I-249999J0D01*
G01*
G37*
G36*
G01*
X77920001Y-107890000D02*
X77019999Y-107890000D01*
G75*
G02*
X76770000Y-107640001I0J249999D01*
G01*
X76770000Y-106989999D01*
G75*
G02*
X77019999Y-106740000I249999J0D01*
G01*
X77920001Y-106740000D01*
G75*
G02*
X78170000Y-106989999I0J-249999D01*
G01*
X78170000Y-107640001D01*
G75*
G02*
X77920001Y-107890000I-249999J0D01*
G01*
G37*
%TD*%
%TO.C,R1*%
G36*
G01*
X80333001Y-109947000D02*
X79432999Y-109947000D01*
G75*
G02*
X79183000Y-109697001I0J249999D01*
G01*
X79183000Y-108996999D01*
G75*
G02*
X79432999Y-108747000I249999J0D01*
G01*
X80333001Y-108747000D01*
G75*
G02*
X80583000Y-108996999I0J-249999D01*
G01*
X80583000Y-109697001D01*
G75*
G02*
X80333001Y-109947000I-249999J0D01*
G01*
G37*
G36*
G01*
X80333001Y-107947000D02*
X79432999Y-107947000D01*
G75*
G02*
X79183000Y-107697001I0J249999D01*
G01*
X79183000Y-106996999D01*
G75*
G02*
X79432999Y-106747000I249999J0D01*
G01*
X80333001Y-106747000D01*
G75*
G02*
X80583000Y-106996999I0J-249999D01*
G01*
X80583000Y-107697001D01*
G75*
G02*
X80333001Y-107947000I-249999J0D01*
G01*
G37*
%TD*%
%TO.C,R2*%
G36*
G01*
X63303999Y-128924000D02*
X64204001Y-128924000D01*
G75*
G02*
X64454000Y-129173999I0J-249999D01*
G01*
X64454000Y-129874001D01*
G75*
G02*
X64204001Y-130124000I-249999J0D01*
G01*
X63303999Y-130124000D01*
G75*
G02*
X63054000Y-129874001I0J249999D01*
G01*
X63054000Y-129173999D01*
G75*
G02*
X63303999Y-128924000I249999J0D01*
G01*
G37*
G36*
G01*
X63303999Y-126924000D02*
X64204001Y-126924000D01*
G75*
G02*
X64454000Y-127173999I0J-249999D01*
G01*
X64454000Y-127874001D01*
G75*
G02*
X64204001Y-128124000I-249999J0D01*
G01*
X63303999Y-128124000D01*
G75*
G02*
X63054000Y-127874001I0J249999D01*
G01*
X63054000Y-127173999D01*
G75*
G02*
X63303999Y-126924000I249999J0D01*
G01*
G37*
%TD*%
D10*
%TO.C,U1*%
X87282000Y-107569000D03*
X87282000Y-108839000D03*
X87282000Y-110109000D03*
X87282000Y-111379000D03*
X94582000Y-111379000D03*
X94582000Y-110109000D03*
X94582000Y-108839000D03*
X94582000Y-107569000D03*
%TD*%
%TO.C,U2*%
X94582000Y-114554000D03*
X94582000Y-115824000D03*
X94582000Y-117094000D03*
X94582000Y-118364000D03*
X87282000Y-118364000D03*
X87282000Y-117094000D03*
X87282000Y-115824000D03*
X87282000Y-114554000D03*
%TD*%
%TO.C,U3*%
G36*
G01*
X85603000Y-115928000D02*
X85603000Y-116228000D01*
G75*
G02*
X85453000Y-116378000I-150000J0D01*
G01*
X83853000Y-116378000D01*
G75*
G02*
X83703000Y-116228000I0J150000D01*
G01*
X83703000Y-115928000D01*
G75*
G02*
X83853000Y-115778000I150000J0D01*
G01*
X85453000Y-115778000D01*
G75*
G02*
X85603000Y-115928000I0J-150000D01*
G01*
G37*
G36*
G01*
X85603000Y-114658000D02*
X85603000Y-114958000D01*
G75*
G02*
X85453000Y-115108000I-150000J0D01*
G01*
X83853000Y-115108000D01*
G75*
G02*
X83703000Y-114958000I0J150000D01*
G01*
X83703000Y-114658000D01*
G75*
G02*
X83853000Y-114508000I150000J0D01*
G01*
X85453000Y-114508000D01*
G75*
G02*
X85603000Y-114658000I0J-150000D01*
G01*
G37*
G36*
G01*
X85603000Y-113388000D02*
X85603000Y-113688000D01*
G75*
G02*
X85453000Y-113838000I-150000J0D01*
G01*
X83853000Y-113838000D01*
G75*
G02*
X83703000Y-113688000I0J150000D01*
G01*
X83703000Y-113388000D01*
G75*
G02*
X83853000Y-113238000I150000J0D01*
G01*
X85453000Y-113238000D01*
G75*
G02*
X85603000Y-113388000I0J-150000D01*
G01*
G37*
G36*
G01*
X85603000Y-112118000D02*
X85603000Y-112418000D01*
G75*
G02*
X85453000Y-112568000I-150000J0D01*
G01*
X83853000Y-112568000D01*
G75*
G02*
X83703000Y-112418000I0J150000D01*
G01*
X83703000Y-112118000D01*
G75*
G02*
X83853000Y-111968000I150000J0D01*
G01*
X85453000Y-111968000D01*
G75*
G02*
X85603000Y-112118000I0J-150000D01*
G01*
G37*
G36*
G01*
X78603000Y-112118000D02*
X78603000Y-112418000D01*
G75*
G02*
X78453000Y-112568000I-150000J0D01*
G01*
X76853000Y-112568000D01*
G75*
G02*
X76703000Y-112418000I0J150000D01*
G01*
X76703000Y-112118000D01*
G75*
G02*
X76853000Y-111968000I150000J0D01*
G01*
X78453000Y-111968000D01*
G75*
G02*
X78603000Y-112118000I0J-150000D01*
G01*
G37*
G36*
G01*
X78603000Y-113388000D02*
X78603000Y-113688000D01*
G75*
G02*
X78453000Y-113838000I-150000J0D01*
G01*
X76853000Y-113838000D01*
G75*
G02*
X76703000Y-113688000I0J150000D01*
G01*
X76703000Y-113388000D01*
G75*
G02*
X76853000Y-113238000I150000J0D01*
G01*
X78453000Y-113238000D01*
G75*
G02*
X78603000Y-113388000I0J-150000D01*
G01*
G37*
G36*
G01*
X78603000Y-114658000D02*
X78603000Y-114958000D01*
G75*
G02*
X78453000Y-115108000I-150000J0D01*
G01*
X76853000Y-115108000D01*
G75*
G02*
X76703000Y-114958000I0J150000D01*
G01*
X76703000Y-114658000D01*
G75*
G02*
X76853000Y-114508000I150000J0D01*
G01*
X78453000Y-114508000D01*
G75*
G02*
X78603000Y-114658000I0J-150000D01*
G01*
G37*
G36*
G01*
X78603000Y-115928000D02*
X78603000Y-116228000D01*
G75*
G02*
X78453000Y-116378000I-150000J0D01*
G01*
X76853000Y-116378000D01*
G75*
G02*
X76703000Y-116228000I0J150000D01*
G01*
X76703000Y-115928000D01*
G75*
G02*
X76853000Y-115778000I150000J0D01*
G01*
X78453000Y-115778000D01*
G75*
G02*
X78603000Y-115928000I0J-150000D01*
G01*
G37*
%TD*%
D11*
%TO.C,U4*%
X73669000Y-114560000D03*
D12*
X66669000Y-115960000D03*
X67469000Y-115960000D03*
X68269000Y-115960000D03*
X69069000Y-115960000D03*
X69869000Y-115960000D03*
X70669000Y-115960000D03*
X71469000Y-115960000D03*
X72269000Y-115960000D03*
D11*
X73669000Y-113760000D03*
X73669000Y-112960000D03*
X73669000Y-112160000D03*
X73669000Y-111360000D03*
X73669000Y-110560000D03*
X73669000Y-109760000D03*
X73669000Y-108960000D03*
D12*
X72269000Y-107560000D03*
X71469000Y-107560000D03*
X70669000Y-107560000D03*
X69869000Y-107560000D03*
X69069000Y-107560000D03*
X68269000Y-107560000D03*
X67469000Y-107560000D03*
X66669000Y-107560000D03*
D11*
X65269000Y-108960000D03*
X65269000Y-109760000D03*
X65269000Y-110560000D03*
X65269000Y-111360000D03*
X65269000Y-112160000D03*
X65269000Y-112960000D03*
X65269000Y-113760000D03*
X65269000Y-114560000D03*
%TD*%
D13*
%TO.C,Y1*%
X82804000Y-109688000D03*
X82804000Y-107188000D03*
%TD*%
D14*
%TO.C,Y2*%
X78232000Y-122555000D03*
X83432000Y-122555000D03*
%TD*%
M02*
