%TF.GenerationSoftware,KiCad,Pcbnew,(5.1.10-1-10_14)*%
%TF.CreationDate,2021-08-15T15:03:56-03:00*%
%TF.ProjectId,bacee,62616365-652e-46b6-9963-61645f706362,1*%
%TF.SameCoordinates,Original*%
%TF.FileFunction,Legend,Top*%
%TF.FilePolarity,Positive*%
%FSLAX46Y46*%
G04 Gerber Fmt 4.6, Leading zero omitted, Abs format (unit mm)*
G04 Created by KiCad (PCBNEW (5.1.10-1-10_14)) date 2021-08-15 15:03:56*
%MOMM*%
%LPD*%
G01*
G04 APERTURE LIST*
%ADD10C,0.120000*%
%ADD11C,0.150000*%
%ADD12C,0.100000*%
G04 APERTURE END LIST*
D10*
%TO.C,BT1*%
X82490000Y-105470000D02*
X82490000Y-104140000D01*
X83820000Y-105470000D02*
X82490000Y-105470000D01*
X85090000Y-105470000D02*
X85090000Y-102810000D01*
X85090000Y-102810000D02*
X87690000Y-102810000D01*
X85090000Y-105470000D02*
X87690000Y-105470000D01*
X87690000Y-105470000D02*
X87690000Y-102810000D01*
%TO.C,C1*%
X93076000Y-123665469D02*
X93076000Y-123461531D01*
X91836000Y-123665469D02*
X91836000Y-123461531D01*
%TO.C,C2*%
X93995000Y-123665469D02*
X93995000Y-123461531D01*
X95235000Y-123665469D02*
X95235000Y-123461531D01*
%TO.C,C3*%
X89169000Y-103776531D02*
X89169000Y-103980469D01*
X90409000Y-103776531D02*
X90409000Y-103980469D01*
%TO.C,D1*%
X78430000Y-110200000D02*
X78430000Y-107340000D01*
X76510000Y-110200000D02*
X78430000Y-110200000D01*
X76510000Y-107340000D02*
X76510000Y-110200000D01*
%TO.C,J1*%
X63500000Y-118177000D02*
X64830000Y-118177000D01*
X64830000Y-118177000D02*
X64830000Y-119507000D01*
X62230000Y-118177000D02*
X62230000Y-120777000D01*
X62230000Y-120777000D02*
X64830000Y-120777000D01*
X64830000Y-120777000D02*
X64830000Y-125917000D01*
X59630000Y-125917000D02*
X64830000Y-125917000D01*
X59630000Y-118177000D02*
X59630000Y-125917000D01*
X59630000Y-118177000D02*
X62230000Y-118177000D01*
%TO.C,J2*%
X65980000Y-128270000D02*
X65980000Y-126940000D01*
X65980000Y-126940000D02*
X67310000Y-126940000D01*
X68580000Y-126940000D02*
X88960000Y-126940000D01*
X88960000Y-129600000D02*
X88960000Y-126940000D01*
X68580000Y-129600000D02*
X88960000Y-129600000D01*
X68580000Y-129600000D02*
X68580000Y-126940000D01*
%TO.C,J3*%
X60960000Y-116900000D02*
X59630000Y-116900000D01*
X59630000Y-116900000D02*
X59630000Y-115570000D01*
X59630000Y-114300000D02*
X59630000Y-106620000D01*
X62290000Y-106620000D02*
X59630000Y-106620000D01*
X62290000Y-114300000D02*
X62290000Y-106620000D01*
X62290000Y-114300000D02*
X59630000Y-114300000D01*
%TO.C,J4*%
X71120000Y-105470000D02*
X71120000Y-102810000D01*
X71120000Y-105470000D02*
X78800000Y-105470000D01*
X78800000Y-105470000D02*
X78800000Y-102810000D01*
X71120000Y-102810000D02*
X78800000Y-102810000D01*
X68520000Y-102810000D02*
X69850000Y-102810000D01*
X68520000Y-104140000D02*
X68520000Y-102810000D01*
%TO.C,R1*%
X80618000Y-108574064D02*
X80618000Y-108119936D01*
X79148000Y-108574064D02*
X79148000Y-108119936D01*
%TO.C,R2*%
X64489000Y-128296936D02*
X64489000Y-128751064D01*
X63019000Y-128296936D02*
X63019000Y-128751064D01*
D11*
%TO.C,U1*%
X88182000Y-106924000D02*
X86432000Y-106924000D01*
X88182000Y-112229000D02*
X93682000Y-112229000D01*
X88182000Y-106719000D02*
X93682000Y-106719000D01*
X88182000Y-112229000D02*
X88182000Y-111929000D01*
X93682000Y-112229000D02*
X93682000Y-111929000D01*
X93682000Y-106719000D02*
X93682000Y-107019000D01*
X88182000Y-106719000D02*
X88182000Y-106924000D01*
%TO.C,U2*%
X88182000Y-113704000D02*
X88182000Y-113909000D01*
X93682000Y-113704000D02*
X93682000Y-114004000D01*
X93682000Y-119214000D02*
X93682000Y-118914000D01*
X88182000Y-119214000D02*
X88182000Y-118914000D01*
X88182000Y-113704000D02*
X93682000Y-113704000D01*
X88182000Y-119214000D02*
X93682000Y-119214000D01*
X88182000Y-113909000D02*
X86432000Y-113909000D01*
D10*
%TO.C,U3*%
X83913000Y-116638000D02*
X85603000Y-116638000D01*
X83913000Y-117383000D02*
X83913000Y-116638000D01*
X81153000Y-117383000D02*
X83913000Y-117383000D01*
X78393000Y-117383000D02*
X78393000Y-116638000D01*
X81153000Y-117383000D02*
X78393000Y-117383000D01*
X83913000Y-110963000D02*
X83913000Y-111708000D01*
X81153000Y-110963000D02*
X83913000Y-110963000D01*
X78393000Y-110963000D02*
X78393000Y-111708000D01*
X81153000Y-110963000D02*
X78393000Y-110963000D01*
D12*
%TO.C,U4*%
X73069000Y-115360000D02*
X72619000Y-115360000D01*
X73069000Y-115360000D02*
X73069000Y-114910000D01*
X73069000Y-108160000D02*
X73069000Y-108610000D01*
X73069000Y-108160000D02*
X72619000Y-108160000D01*
X65869000Y-108160000D02*
X66319000Y-108160000D01*
X65869000Y-108160000D02*
X65869000Y-108610000D01*
X66319000Y-115360000D02*
X66319000Y-116660000D01*
X66219000Y-115360000D02*
X66319000Y-115360000D01*
X65869000Y-115010000D02*
X66219000Y-115360000D01*
X65869000Y-114910000D02*
X65869000Y-115010000D01*
D10*
%TO.C,Y1*%
X81904000Y-110388000D02*
X83704000Y-110388000D01*
X83754000Y-108988000D02*
X83754000Y-107888000D01*
X81854000Y-108988000D02*
X81854000Y-107888000D01*
%TO.C,Y2*%
X76282000Y-124355000D02*
X83532000Y-124355000D01*
X76282000Y-120755000D02*
X76282000Y-124355000D01*
X83532000Y-120755000D02*
X76282000Y-120755000D01*
%TO.C,BT1*%
D11*
X83748571Y-104925714D02*
X83796190Y-104782857D01*
X83843809Y-104735238D01*
X83939047Y-104687619D01*
X84081904Y-104687619D01*
X84177142Y-104735238D01*
X84224761Y-104782857D01*
X84272380Y-104878095D01*
X84272380Y-105259047D01*
X83272380Y-105259047D01*
X83272380Y-104925714D01*
X83320000Y-104830476D01*
X83367619Y-104782857D01*
X83462857Y-104735238D01*
X83558095Y-104735238D01*
X83653333Y-104782857D01*
X83700952Y-104830476D01*
X83748571Y-104925714D01*
X83748571Y-105259047D01*
X83272380Y-104401904D02*
X83272380Y-103830476D01*
X84272380Y-104116190D02*
X83272380Y-104116190D01*
X84272380Y-102973333D02*
X84272380Y-103544761D01*
X84272380Y-103259047D02*
X83272380Y-103259047D01*
X83415238Y-103354285D01*
X83510476Y-103449523D01*
X83558095Y-103544761D01*
%TO.C,C1*%
X91323142Y-123730166D02*
X91370761Y-123777785D01*
X91418380Y-123920642D01*
X91418380Y-124015880D01*
X91370761Y-124158738D01*
X91275523Y-124253976D01*
X91180285Y-124301595D01*
X90989809Y-124349214D01*
X90846952Y-124349214D01*
X90656476Y-124301595D01*
X90561238Y-124253976D01*
X90466000Y-124158738D01*
X90418380Y-124015880D01*
X90418380Y-123920642D01*
X90466000Y-123777785D01*
X90513619Y-123730166D01*
X91418380Y-122777785D02*
X91418380Y-123349214D01*
X91418380Y-123063500D02*
X90418380Y-123063500D01*
X90561238Y-123158738D01*
X90656476Y-123253976D01*
X90704095Y-123349214D01*
%TO.C,C2*%
X93482142Y-123730166D02*
X93529761Y-123777785D01*
X93577380Y-123920642D01*
X93577380Y-124015880D01*
X93529761Y-124158738D01*
X93434523Y-124253976D01*
X93339285Y-124301595D01*
X93148809Y-124349214D01*
X93005952Y-124349214D01*
X92815476Y-124301595D01*
X92720238Y-124253976D01*
X92625000Y-124158738D01*
X92577380Y-124015880D01*
X92577380Y-123920642D01*
X92625000Y-123777785D01*
X92672619Y-123730166D01*
X92672619Y-123349214D02*
X92625000Y-123301595D01*
X92577380Y-123206357D01*
X92577380Y-122968261D01*
X92625000Y-122873023D01*
X92672619Y-122825404D01*
X92767857Y-122777785D01*
X92863095Y-122777785D01*
X93005952Y-122825404D01*
X93577380Y-123396833D01*
X93577380Y-122777785D01*
%TO.C,C3*%
X91636142Y-104045166D02*
X91683761Y-104092785D01*
X91731380Y-104235642D01*
X91731380Y-104330880D01*
X91683761Y-104473738D01*
X91588523Y-104568976D01*
X91493285Y-104616595D01*
X91302809Y-104664214D01*
X91159952Y-104664214D01*
X90969476Y-104616595D01*
X90874238Y-104568976D01*
X90779000Y-104473738D01*
X90731380Y-104330880D01*
X90731380Y-104235642D01*
X90779000Y-104092785D01*
X90826619Y-104045166D01*
X90731380Y-103711833D02*
X90731380Y-103092785D01*
X91112333Y-103426119D01*
X91112333Y-103283261D01*
X91159952Y-103188023D01*
X91207571Y-103140404D01*
X91302809Y-103092785D01*
X91540904Y-103092785D01*
X91636142Y-103140404D01*
X91683761Y-103188023D01*
X91731380Y-103283261D01*
X91731380Y-103568976D01*
X91683761Y-103664214D01*
X91636142Y-103711833D01*
%TO.C,D1*%
X76272380Y-109078095D02*
X75272380Y-109078095D01*
X75272380Y-108840000D01*
X75320000Y-108697142D01*
X75415238Y-108601904D01*
X75510476Y-108554285D01*
X75700952Y-108506666D01*
X75843809Y-108506666D01*
X76034285Y-108554285D01*
X76129523Y-108601904D01*
X76224761Y-108697142D01*
X76272380Y-108840000D01*
X76272380Y-109078095D01*
X76272380Y-107554285D02*
X76272380Y-108125714D01*
X76272380Y-107840000D02*
X75272380Y-107840000D01*
X75415238Y-107935238D01*
X75510476Y-108030476D01*
X75558095Y-108125714D01*
%TO.C,J1*%
X61896666Y-116189380D02*
X61896666Y-116903666D01*
X61849047Y-117046523D01*
X61753809Y-117141761D01*
X61610952Y-117189380D01*
X61515714Y-117189380D01*
X62896666Y-117189380D02*
X62325238Y-117189380D01*
X62610952Y-117189380D02*
X62610952Y-116189380D01*
X62515714Y-116332238D01*
X62420476Y-116427476D01*
X62325238Y-116475095D01*
%TO.C,J2*%
X63992380Y-128603333D02*
X64706666Y-128603333D01*
X64849523Y-128650952D01*
X64944761Y-128746190D01*
X64992380Y-128889047D01*
X64992380Y-128984285D01*
X64087619Y-128174761D02*
X64040000Y-128127142D01*
X63992380Y-128031904D01*
X63992380Y-127793809D01*
X64040000Y-127698571D01*
X64087619Y-127650952D01*
X64182857Y-127603333D01*
X64278095Y-127603333D01*
X64420952Y-127650952D01*
X64992380Y-128222380D01*
X64992380Y-127603333D01*
%TO.C,J3*%
X60626666Y-117792380D02*
X60626666Y-118506666D01*
X60579047Y-118649523D01*
X60483809Y-118744761D01*
X60340952Y-118792380D01*
X60245714Y-118792380D01*
X61007619Y-117792380D02*
X61626666Y-117792380D01*
X61293333Y-118173333D01*
X61436190Y-118173333D01*
X61531428Y-118220952D01*
X61579047Y-118268571D01*
X61626666Y-118363809D01*
X61626666Y-118601904D01*
X61579047Y-118697142D01*
X61531428Y-118744761D01*
X61436190Y-118792380D01*
X61150476Y-118792380D01*
X61055238Y-118744761D01*
X61007619Y-118697142D01*
X63396761Y-116045761D02*
X63444380Y-115902904D01*
X63444380Y-115664809D01*
X63396761Y-115569571D01*
X63349142Y-115521952D01*
X63253904Y-115474333D01*
X63158666Y-115474333D01*
X63063428Y-115521952D01*
X63015809Y-115569571D01*
X62968190Y-115664809D01*
X62920571Y-115855285D01*
X62872952Y-115950523D01*
X62825333Y-115998142D01*
X62730095Y-116045761D01*
X62634857Y-116045761D01*
X62539619Y-115998142D01*
X62492000Y-115950523D01*
X62444380Y-115855285D01*
X62444380Y-115617190D01*
X62492000Y-115474333D01*
X63396761Y-114664809D02*
X63444380Y-114760047D01*
X63444380Y-114950523D01*
X63396761Y-115045761D01*
X63301523Y-115093380D01*
X62920571Y-115093380D01*
X62825333Y-115045761D01*
X62777714Y-114950523D01*
X62777714Y-114760047D01*
X62825333Y-114664809D01*
X62920571Y-114617190D01*
X63015809Y-114617190D01*
X63111047Y-115093380D01*
X63444380Y-114188619D02*
X62777714Y-114188619D01*
X62968190Y-114188619D02*
X62872952Y-114141000D01*
X62825333Y-114093380D01*
X62777714Y-113998142D01*
X62777714Y-113902904D01*
X63444380Y-113569571D02*
X62777714Y-113569571D01*
X62444380Y-113569571D02*
X62492000Y-113617190D01*
X62539619Y-113569571D01*
X62492000Y-113521952D01*
X62444380Y-113569571D01*
X62539619Y-113569571D01*
X63444380Y-112664809D02*
X62920571Y-112664809D01*
X62825333Y-112712428D01*
X62777714Y-112807666D01*
X62777714Y-112998142D01*
X62825333Y-113093380D01*
X63396761Y-112664809D02*
X63444380Y-112760047D01*
X63444380Y-112998142D01*
X63396761Y-113093380D01*
X63301523Y-113141000D01*
X63206285Y-113141000D01*
X63111047Y-113093380D01*
X63063428Y-112998142D01*
X63063428Y-112760047D01*
X63015809Y-112664809D01*
X63444380Y-112045761D02*
X63396761Y-112141000D01*
X63301523Y-112188619D01*
X62444380Y-112188619D01*
X63444380Y-110902904D02*
X62444380Y-110902904D01*
X62444380Y-110521952D01*
X62492000Y-110426714D01*
X62539619Y-110379095D01*
X62634857Y-110331476D01*
X62777714Y-110331476D01*
X62872952Y-110379095D01*
X62920571Y-110426714D01*
X62968190Y-110521952D01*
X62968190Y-110902904D01*
X63444380Y-109760047D02*
X63396761Y-109855285D01*
X63349142Y-109902904D01*
X63253904Y-109950523D01*
X62968190Y-109950523D01*
X62872952Y-109902904D01*
X62825333Y-109855285D01*
X62777714Y-109760047D01*
X62777714Y-109617190D01*
X62825333Y-109521952D01*
X62872952Y-109474333D01*
X62968190Y-109426714D01*
X63253904Y-109426714D01*
X63349142Y-109474333D01*
X63396761Y-109521952D01*
X63444380Y-109617190D01*
X63444380Y-109760047D01*
X63444380Y-108998142D02*
X62777714Y-108998142D01*
X62968190Y-108998142D02*
X62872952Y-108950523D01*
X62825333Y-108902904D01*
X62777714Y-108807666D01*
X62777714Y-108712428D01*
X62777714Y-108521952D02*
X62777714Y-108141000D01*
X62444380Y-108379095D02*
X63301523Y-108379095D01*
X63396761Y-108331476D01*
X63444380Y-108236238D01*
X63444380Y-108141000D01*
%TO.C,J4*%
X66532380Y-104473333D02*
X67246666Y-104473333D01*
X67389523Y-104520952D01*
X67484761Y-104616190D01*
X67532380Y-104759047D01*
X67532380Y-104854285D01*
X66865714Y-103568571D02*
X67532380Y-103568571D01*
X66484761Y-103806666D02*
X67199047Y-104044761D01*
X67199047Y-103425714D01*
%TO.C,R1*%
X78685380Y-108513666D02*
X78209190Y-108847000D01*
X78685380Y-109085095D02*
X77685380Y-109085095D01*
X77685380Y-108704142D01*
X77733000Y-108608904D01*
X77780619Y-108561285D01*
X77875857Y-108513666D01*
X78018714Y-108513666D01*
X78113952Y-108561285D01*
X78161571Y-108608904D01*
X78209190Y-108704142D01*
X78209190Y-109085095D01*
X78685380Y-107561285D02*
X78685380Y-108132714D01*
X78685380Y-107847000D02*
X77685380Y-107847000D01*
X77828238Y-107942238D01*
X77923476Y-108037476D01*
X77971095Y-108132714D01*
%TO.C,R2*%
X65856380Y-128690666D02*
X65380190Y-129024000D01*
X65856380Y-129262095D02*
X64856380Y-129262095D01*
X64856380Y-128881142D01*
X64904000Y-128785904D01*
X64951619Y-128738285D01*
X65046857Y-128690666D01*
X65189714Y-128690666D01*
X65284952Y-128738285D01*
X65332571Y-128785904D01*
X65380190Y-128881142D01*
X65380190Y-129262095D01*
X64951619Y-128309714D02*
X64904000Y-128262095D01*
X64856380Y-128166857D01*
X64856380Y-127928761D01*
X64904000Y-127833523D01*
X64951619Y-127785904D01*
X65046857Y-127738285D01*
X65142095Y-127738285D01*
X65284952Y-127785904D01*
X65856380Y-128357333D01*
X65856380Y-127738285D01*
%TO.C,U1*%
X90170095Y-105246380D02*
X90170095Y-106055904D01*
X90217714Y-106151142D01*
X90265333Y-106198761D01*
X90360571Y-106246380D01*
X90551047Y-106246380D01*
X90646285Y-106198761D01*
X90693904Y-106151142D01*
X90741523Y-106055904D01*
X90741523Y-105246380D01*
X91741523Y-106246380D02*
X91170095Y-106246380D01*
X91455809Y-106246380D02*
X91455809Y-105246380D01*
X91360571Y-105389238D01*
X91265333Y-105484476D01*
X91170095Y-105532095D01*
%TO.C,U2*%
X90170095Y-112231380D02*
X90170095Y-113040904D01*
X90217714Y-113136142D01*
X90265333Y-113183761D01*
X90360571Y-113231380D01*
X90551047Y-113231380D01*
X90646285Y-113183761D01*
X90693904Y-113136142D01*
X90741523Y-113040904D01*
X90741523Y-112231380D01*
X91170095Y-112326619D02*
X91217714Y-112279000D01*
X91312952Y-112231380D01*
X91551047Y-112231380D01*
X91646285Y-112279000D01*
X91693904Y-112326619D01*
X91741523Y-112421857D01*
X91741523Y-112517095D01*
X91693904Y-112659952D01*
X91122476Y-113231380D01*
X91741523Y-113231380D01*
%TO.C,U3*%
X80391095Y-117675380D02*
X80391095Y-118484904D01*
X80438714Y-118580142D01*
X80486333Y-118627761D01*
X80581571Y-118675380D01*
X80772047Y-118675380D01*
X80867285Y-118627761D01*
X80914904Y-118580142D01*
X80962523Y-118484904D01*
X80962523Y-117675380D01*
X81343476Y-117675380D02*
X81962523Y-117675380D01*
X81629190Y-118056333D01*
X81772047Y-118056333D01*
X81867285Y-118103952D01*
X81914904Y-118151571D01*
X81962523Y-118246809D01*
X81962523Y-118484904D01*
X81914904Y-118580142D01*
X81867285Y-118627761D01*
X81772047Y-118675380D01*
X81486333Y-118675380D01*
X81391095Y-118627761D01*
X81343476Y-118580142D01*
%TO.C,U4*%
X66889380Y-112140904D02*
X67698904Y-112140904D01*
X67794142Y-112093285D01*
X67841761Y-112045666D01*
X67889380Y-111950428D01*
X67889380Y-111759952D01*
X67841761Y-111664714D01*
X67794142Y-111617095D01*
X67698904Y-111569476D01*
X66889380Y-111569476D01*
X67222714Y-110664714D02*
X67889380Y-110664714D01*
X66841761Y-110902809D02*
X67556047Y-111140904D01*
X67556047Y-110521857D01*
X75835666Y-117831428D02*
X75835666Y-117355238D01*
X76121380Y-117926666D02*
X75121380Y-117593333D01*
X76121380Y-117260000D01*
X75121380Y-117069523D02*
X75121380Y-116498095D01*
X76121380Y-116783809D02*
X75121380Y-116783809D01*
X76121380Y-116164761D02*
X75121380Y-116164761D01*
X75835666Y-115831428D01*
X75121380Y-115498095D01*
X76121380Y-115498095D01*
X75597571Y-115021904D02*
X75597571Y-114688571D01*
X76121380Y-114545714D02*
X76121380Y-115021904D01*
X75121380Y-115021904D01*
X75121380Y-114545714D01*
X75169000Y-113593333D02*
X75121380Y-113688571D01*
X75121380Y-113831428D01*
X75169000Y-113974285D01*
X75264238Y-114069523D01*
X75359476Y-114117142D01*
X75549952Y-114164761D01*
X75692809Y-114164761D01*
X75883285Y-114117142D01*
X75978523Y-114069523D01*
X76073761Y-113974285D01*
X76121380Y-113831428D01*
X76121380Y-113736190D01*
X76073761Y-113593333D01*
X76026142Y-113545714D01*
X75692809Y-113545714D01*
X75692809Y-113736190D01*
X75835666Y-113164761D02*
X75835666Y-112688571D01*
X76121380Y-113260000D02*
X75121380Y-112926666D01*
X76121380Y-112593333D01*
X75121380Y-112355238D02*
X75121380Y-111736190D01*
X75502333Y-112069523D01*
X75502333Y-111926666D01*
X75549952Y-111831428D01*
X75597571Y-111783809D01*
X75692809Y-111736190D01*
X75930904Y-111736190D01*
X76026142Y-111783809D01*
X76073761Y-111831428D01*
X76121380Y-111926666D01*
X76121380Y-112212380D01*
X76073761Y-112307619D01*
X76026142Y-112355238D01*
X75216619Y-111355238D02*
X75169000Y-111307619D01*
X75121380Y-111212380D01*
X75121380Y-110974285D01*
X75169000Y-110879047D01*
X75216619Y-110831428D01*
X75311857Y-110783809D01*
X75407095Y-110783809D01*
X75549952Y-110831428D01*
X76121380Y-111402857D01*
X76121380Y-110783809D01*
X75549952Y-110212380D02*
X75502333Y-110307619D01*
X75454714Y-110355238D01*
X75359476Y-110402857D01*
X75311857Y-110402857D01*
X75216619Y-110355238D01*
X75169000Y-110307619D01*
X75121380Y-110212380D01*
X75121380Y-110021904D01*
X75169000Y-109926666D01*
X75216619Y-109879047D01*
X75311857Y-109831428D01*
X75359476Y-109831428D01*
X75454714Y-109879047D01*
X75502333Y-109926666D01*
X75549952Y-110021904D01*
X75549952Y-110212380D01*
X75597571Y-110307619D01*
X75645190Y-110355238D01*
X75740428Y-110402857D01*
X75930904Y-110402857D01*
X76026142Y-110355238D01*
X76073761Y-110307619D01*
X76121380Y-110212380D01*
X76121380Y-110021904D01*
X76073761Y-109926666D01*
X76026142Y-109879047D01*
X75930904Y-109831428D01*
X75740428Y-109831428D01*
X75645190Y-109879047D01*
X75597571Y-109926666D01*
X75549952Y-110021904D01*
X76121380Y-109402857D02*
X75121380Y-109402857D01*
X75121380Y-109021904D01*
X75169000Y-108926666D01*
X75216619Y-108879047D01*
X75311857Y-108831428D01*
X75454714Y-108831428D01*
X75549952Y-108879047D01*
X75597571Y-108926666D01*
X75645190Y-109021904D01*
X75645190Y-109402857D01*
X75740428Y-108402857D02*
X75740428Y-107640952D01*
X75835666Y-107212380D02*
X75835666Y-106736190D01*
X76121380Y-107307619D02*
X75121380Y-106974285D01*
X76121380Y-106640952D01*
X75121380Y-106307619D02*
X75930904Y-106307619D01*
X76026142Y-106260000D01*
X76073761Y-106212380D01*
X76121380Y-106117142D01*
X76121380Y-105926666D01*
X76073761Y-105831428D01*
X76026142Y-105783809D01*
X75930904Y-105736190D01*
X75121380Y-105736190D01*
%TO.C,Y1*%
X80830190Y-108914190D02*
X81306380Y-108914190D01*
X80306380Y-109247523D02*
X80830190Y-108914190D01*
X80306380Y-108580857D01*
X81306380Y-107723714D02*
X81306380Y-108295142D01*
X81306380Y-108009428D02*
X80306380Y-108009428D01*
X80449238Y-108104666D01*
X80544476Y-108199904D01*
X80592095Y-108295142D01*
%TO.C,Y2*%
X80355809Y-119731190D02*
X80355809Y-120207380D01*
X80022476Y-119207380D02*
X80355809Y-119731190D01*
X80689142Y-119207380D01*
X80974857Y-119302619D02*
X81022476Y-119255000D01*
X81117714Y-119207380D01*
X81355809Y-119207380D01*
X81451047Y-119255000D01*
X81498666Y-119302619D01*
X81546285Y-119397857D01*
X81546285Y-119493095D01*
X81498666Y-119635952D01*
X80927238Y-120207380D01*
X81546285Y-120207380D01*
%TD*%
M02*
