M48
; DRILL file {KiCad (5.1.10-1-10_14)} date Sunday, August 15, 2021 at 03:06:38 PM
; FORMAT={-:-/ absolute / inch / decimal}
; #@! TF.CreationDate,2021-08-15T15:06:38-03:00
; #@! TF.GenerationSoftware,Kicad,Pcbnew,(5.1.10-1-10_14)
; #@! TF.FileFunction,Plated,1,2,PTH
FMAT,2
INCH
T1C0.0236
T2C0.0394
%
G90
G05
T1
X2.35Y-4.995
X2.5136Y-4.492
X2.5198Y-4.4452
X2.575Y-4.555
X2.625Y-4.62
X2.635Y-4.44
X2.65Y-4.5
X2.6743Y-4.6223
X2.7Y-4.805
X2.71Y-4.91
X2.7186Y-4.2854
X2.7186Y-4.4936
X2.7193Y-4.1869
X2.77Y-4.655
X2.7822Y-4.5176
X2.785Y-4.325
X2.8137Y-4.1869
X2.825Y-4.415
X2.84Y-4.46
X2.841Y-4.3007
X2.87Y-4.77
X2.895Y-4.55
X2.905Y-4.965
X2.9574Y-4.51
X3.0Y-4.415
X3.03Y-4.735
X3.125Y-4.515
X3.18Y-4.87
X3.28Y-4.92
X3.325Y-4.03
X3.38Y-4.7
X3.5Y-4.455
X3.505Y-4.715
X3.56Y-4.61
X3.58Y-4.395
X3.63Y-4.61
X3.65Y-4.335
T2
X2.4Y-4.25
X2.4Y-4.35
X2.4Y-4.45
X2.4Y-4.55
X2.4Y-4.705
X2.4Y-4.805
X2.4Y-4.905
X2.5Y-4.705
X2.5Y-4.805
X2.5Y-4.905
X2.65Y-5.05
X2.75Y-4.1
X2.75Y-5.05
X2.85Y-4.1
X2.85Y-5.05
X2.95Y-4.1
X2.95Y-5.05
X3.05Y-4.1
X3.05Y-5.05
X3.15Y-5.05
X3.25Y-5.05
X3.3Y-4.1
X3.35Y-5.05
X3.4Y-4.1
X3.45Y-5.05
T0
M30
